%TF.GenerationSoftware,KiCad,Pcbnew,9.0.7+1*%
%TF.CreationDate,Date%
%TF.ProjectId,boardwright,626f6172-6477-4726-9967-68742e6b6963,0.1.1*%
%TF.SameCoordinates,Original*%
%TF.FileFunction,Legend,Top*%
%TF.FilePolarity,Positive*%
%FSLAX46Y46*%
G04 Gerber Fmt 4.6, Leading zero omitted, Abs format (unit mm)*
G04 Created by KiCad*
%MOMM*%
%LPD*%
G01*
G04 APERTURE LIST*
G04 Aperture macros list*
%AMRoundRect*
0 Rectangle with rounded corners*
0 $1 Rounding radius*
0 $2 $3 $4 $5 $6 $7 $8 $9 X,Y pos of 4 corners*
0 Add a 4 corners polygon primitive as box body*
4,1,4,$2,$3,$4,$5,$6,$7,$8,$9,$2,$3,0*
0 Add four circle primitives for the rounded corners*
1,1,$1+$1,$2,$3*
1,1,$1+$1,$4,$5*
1,1,$1+$1,$6,$7*
1,1,$1+$1,$8,$9*
0 Add four rect primitives between the rounded corners*
20,1,$1+$1,$2,$3,$4,$5,0*
20,1,$1+$1,$4,$5,$6,$7,0*
20,1,$1+$1,$6,$7,$8,$9,0*
20,1,$1+$1,$8,$9,$2,$3,0*%
G04 Aperture macros list end*
%ADD10C,0.150000*%
%ADD11C,0.120000*%
%ADD12C,2.500000*%
%ADD13RoundRect,0.050000X-0.900000X-0.900000X0.900000X-0.900000X0.900000X0.900000X-0.900000X0.900000X0*%
%ADD14C,1.900000*%
%ADD15C,1.600000*%
%ADD16RoundRect,0.175000X-0.850000X-0.175000X0.850000X-0.175000X0.850000X0.175000X-0.850000X0.175000X0*%
G04 APERTURE END LIST*
D10*
X167286938Y-75529712D02*
X166714519Y-75428697D01*
X166882877Y-75933773D02*
X166175771Y-75226666D01*
X166175771Y-75226666D02*
X166445145Y-74957292D01*
X166445145Y-74957292D02*
X166546160Y-74923620D01*
X166546160Y-74923620D02*
X166613503Y-74923620D01*
X166613503Y-74923620D02*
X166714519Y-74957292D01*
X166714519Y-74957292D02*
X166815534Y-75058307D01*
X166815534Y-75058307D02*
X166849206Y-75159323D01*
X166849206Y-75159323D02*
X166849206Y-75226666D01*
X166849206Y-75226666D02*
X166815534Y-75327681D01*
X166815534Y-75327681D02*
X166546160Y-75597055D01*
X167960373Y-74856277D02*
X167556312Y-75260338D01*
X167758343Y-75058307D02*
X167051236Y-74351201D01*
X167051236Y-74351201D02*
X167084908Y-74519559D01*
X167084908Y-74519559D02*
X167084908Y-74654246D01*
X167084908Y-74654246D02*
X167051236Y-74755262D01*
X151531905Y-76444819D02*
X151531905Y-75444819D01*
X151531905Y-75444819D02*
X151770000Y-75444819D01*
X151770000Y-75444819D02*
X151912857Y-75492438D01*
X151912857Y-75492438D02*
X152008095Y-75587676D01*
X152008095Y-75587676D02*
X152055714Y-75682914D01*
X152055714Y-75682914D02*
X152103333Y-75873390D01*
X152103333Y-75873390D02*
X152103333Y-76016247D01*
X152103333Y-76016247D02*
X152055714Y-76206723D01*
X152055714Y-76206723D02*
X152008095Y-76301961D01*
X152008095Y-76301961D02*
X151912857Y-76397200D01*
X151912857Y-76397200D02*
X151770000Y-76444819D01*
X151770000Y-76444819D02*
X151531905Y-76444819D01*
X153055714Y-76444819D02*
X152484286Y-76444819D01*
X152770000Y-76444819D02*
X152770000Y-75444819D01*
X152770000Y-75444819D02*
X152674762Y-75587676D01*
X152674762Y-75587676D02*
X152579524Y-75682914D01*
X152579524Y-75682914D02*
X152484286Y-75730533D01*
G36*
X145044858Y-69686516D02*
G01*
X145063360Y-69705018D01*
X145085714Y-69749725D01*
X145085714Y-69821459D01*
X145063360Y-69866165D01*
X145044857Y-69884668D01*
X145000152Y-69907021D01*
X144807143Y-69907021D01*
X144807143Y-69664164D01*
X145000152Y-69664164D01*
X145044858Y-69686516D01*
G37*
G36*
X146031892Y-70497497D02*
G01*
X143896679Y-70497497D01*
X143896679Y-69574532D01*
X143980012Y-69574532D01*
X143980012Y-69603796D01*
X143991211Y-69630832D01*
X144011903Y-69651524D01*
X144038939Y-69662723D01*
X144053571Y-69664164D01*
X144192857Y-69664164D01*
X144192857Y-70339164D01*
X144194298Y-70353796D01*
X144205497Y-70380832D01*
X144226189Y-70401524D01*
X144253225Y-70412723D01*
X144282489Y-70412723D01*
X144309525Y-70401524D01*
X144330217Y-70380832D01*
X144341416Y-70353796D01*
X144342857Y-70339164D01*
X144342857Y-69664164D01*
X144482143Y-69664164D01*
X144496775Y-69662723D01*
X144523811Y-69651524D01*
X144544503Y-69630832D01*
X144555702Y-69603796D01*
X144555702Y-69589164D01*
X144657143Y-69589164D01*
X144657143Y-70339164D01*
X144658584Y-70353796D01*
X144669783Y-70380832D01*
X144690475Y-70401524D01*
X144717511Y-70412723D01*
X144746775Y-70412723D01*
X144773811Y-70401524D01*
X144794503Y-70380832D01*
X144805702Y-70353796D01*
X144807143Y-70339164D01*
X144807143Y-70057021D01*
X145017857Y-70057021D01*
X145032489Y-70055580D01*
X145034978Y-70054548D01*
X145037666Y-70054358D01*
X145051398Y-70049103D01*
X145122827Y-70013389D01*
X145129124Y-70009425D01*
X145130955Y-70008667D01*
X145133014Y-70006976D01*
X145135270Y-70005557D01*
X145136568Y-70004059D01*
X145142320Y-69999339D01*
X145178034Y-69963624D01*
X145182751Y-69957875D01*
X145184250Y-69956576D01*
X145185671Y-69954317D01*
X145187361Y-69952259D01*
X145188118Y-69950429D01*
X145192082Y-69944133D01*
X145227796Y-69872705D01*
X145233051Y-69858973D01*
X145233241Y-69856285D01*
X145234273Y-69853796D01*
X145235714Y-69839164D01*
X145235714Y-69794070D01*
X145372018Y-69794070D01*
X145374092Y-69823260D01*
X145387180Y-69849435D01*
X145409288Y-69868608D01*
X145437049Y-69877861D01*
X145466239Y-69875787D01*
X145479971Y-69870532D01*
X145551398Y-69834817D01*
X145557692Y-69830854D01*
X145559524Y-69830096D01*
X145561586Y-69828402D01*
X145563841Y-69826984D01*
X145565137Y-69825489D01*
X145570890Y-69820768D01*
X145585714Y-69805944D01*
X145585714Y-70264164D01*
X145446429Y-70264164D01*
X145431797Y-70265605D01*
X145404761Y-70276804D01*
X145384069Y-70297496D01*
X145372870Y-70324532D01*
X145372870Y-70353796D01*
X145384069Y-70380832D01*
X145404761Y-70401524D01*
X145431797Y-70412723D01*
X145446429Y-70414164D01*
X145875000Y-70414164D01*
X145889632Y-70412723D01*
X145916668Y-70401524D01*
X145937360Y-70380832D01*
X145948559Y-70353796D01*
X145948559Y-70324532D01*
X145937360Y-70297496D01*
X145916668Y-70276804D01*
X145889632Y-70265605D01*
X145875000Y-70264164D01*
X145735714Y-70264164D01*
X145735714Y-69589164D01*
X145735708Y-69589111D01*
X145735714Y-69589085D01*
X145735698Y-69589008D01*
X145734273Y-69574532D01*
X145731431Y-69567671D01*
X145729975Y-69560391D01*
X145725886Y-69554286D01*
X145723074Y-69547496D01*
X145717821Y-69542243D01*
X145713691Y-69536076D01*
X145707579Y-69532001D01*
X145702382Y-69526804D01*
X145695519Y-69523961D01*
X145689342Y-69519843D01*
X145682136Y-69518417D01*
X145675346Y-69515605D01*
X145667915Y-69515605D01*
X145660635Y-69514165D01*
X145653435Y-69515605D01*
X145646082Y-69515605D01*
X145639217Y-69518448D01*
X145631940Y-69519904D01*
X145625836Y-69523991D01*
X145619046Y-69526804D01*
X145613794Y-69532055D01*
X145607625Y-69536187D01*
X145598409Y-69547440D01*
X145598354Y-69547496D01*
X145598343Y-69547520D01*
X145598310Y-69547562D01*
X145531002Y-69648524D01*
X145473429Y-69706096D01*
X145412887Y-69736368D01*
X145400444Y-69744201D01*
X145381271Y-69766309D01*
X145372018Y-69794070D01*
X145235714Y-69794070D01*
X145235714Y-69732021D01*
X145234273Y-69717389D01*
X145233241Y-69714899D01*
X145233051Y-69712212D01*
X145227796Y-69698481D01*
X145192082Y-69627051D01*
X145188117Y-69620751D01*
X145187360Y-69618924D01*
X145185671Y-69616867D01*
X145184250Y-69614608D01*
X145182751Y-69613308D01*
X145178033Y-69607559D01*
X145142319Y-69571845D01*
X145136569Y-69567126D01*
X145135270Y-69565628D01*
X145133010Y-69564206D01*
X145130954Y-69562518D01*
X145129126Y-69561760D01*
X145122827Y-69557796D01*
X145051398Y-69522082D01*
X145037666Y-69516827D01*
X145034978Y-69516636D01*
X145032489Y-69515605D01*
X145017857Y-69514164D01*
X144732143Y-69514164D01*
X144717511Y-69515605D01*
X144690475Y-69526804D01*
X144669783Y-69547496D01*
X144658584Y-69574532D01*
X144657143Y-69589164D01*
X144555702Y-69589164D01*
X144555702Y-69574532D01*
X144544503Y-69547496D01*
X144523811Y-69526804D01*
X144496775Y-69515605D01*
X144482143Y-69514164D01*
X144053571Y-69514164D01*
X144038939Y-69515605D01*
X144011903Y-69526804D01*
X143991211Y-69547496D01*
X143980012Y-69574532D01*
X143896679Y-69574532D01*
X143896679Y-69430831D01*
X146031892Y-69430831D01*
X146031892Y-70497497D01*
G37*
X157238095Y-65054819D02*
X157238095Y-65864342D01*
X157238095Y-65864342D02*
X157285714Y-65959580D01*
X157285714Y-65959580D02*
X157333333Y-66007200D01*
X157333333Y-66007200D02*
X157428571Y-66054819D01*
X157428571Y-66054819D02*
X157619047Y-66054819D01*
X157619047Y-66054819D02*
X157714285Y-66007200D01*
X157714285Y-66007200D02*
X157761904Y-65959580D01*
X157761904Y-65959580D02*
X157809523Y-65864342D01*
X157809523Y-65864342D02*
X157809523Y-65054819D01*
X158809523Y-66054819D02*
X158238095Y-66054819D01*
X158523809Y-66054819D02*
X158523809Y-65054819D01*
X158523809Y-65054819D02*
X158428571Y-65197676D01*
X158428571Y-65197676D02*
X158333333Y-65292914D01*
X158333333Y-65292914D02*
X158238095Y-65340533D01*
D11*
%TO.C,R1*%
X160238391Y-87761609D02*
X163901204Y-84098796D01*
X179754538Y-68245462D02*
X176091725Y-71908275D01*
X178297898Y-74114448D02*
X166107377Y-86304969D01*
X161695031Y-81892623D01*
X173885552Y-69702102D01*
X178297898Y-74114448D01*
%TO.C,D1*%
X149710000Y-78360000D02*
X149710000Y-81640000D01*
X149710000Y-78360488D02*
G75*
G02*
X155310000Y-80000000I2560000J-1639512D01*
G01*
X155310000Y-80000000D02*
G75*
G02*
X149710000Y-81639512I-3040000J0D01*
G01*
X154770000Y-80000000D02*
G75*
G02*
X149770000Y-80000000I-2500000J0D01*
G01*
X149770000Y-80000000D02*
G75*
G02*
X154770000Y-80000000I2500000J0D01*
G01*
%TO.C,TP1*%
X145950000Y-72000000D02*
G75*
G02*
X144050000Y-72000000I-950000J0D01*
G01*
X144050000Y-72000000D02*
G75*
G02*
X145950000Y-72000000I950000J0D01*
G01*
%TO.C,U1*%
X155940000Y-66440000D02*
X160060000Y-66440000D01*
X155940000Y-66535000D02*
X155940000Y-66440000D01*
X155940000Y-71560000D02*
X155940000Y-71465000D01*
X160060000Y-66440000D02*
X160060000Y-66535000D01*
X160060000Y-71465000D02*
X160060000Y-71560000D01*
X160060000Y-71560000D02*
X155940000Y-71560000D01*
X155400000Y-66530000D02*
X155160000Y-66200000D01*
X155640000Y-66200000D01*
X155400000Y-66530000D01*
G36*
X155400000Y-66530000D02*
G01*
X155160000Y-66200000D01*
X155640000Y-66200000D01*
X155400000Y-66530000D01*
G37*
%TD*%
%LPC*%
D12*
%TO.C,R1*%
X159220157Y-88779843D03*
X180772772Y-67227228D03*
%TD*%
D13*
%TO.C,D1*%
X151000000Y-80000000D03*
D14*
X153540000Y-80000000D03*
%TD*%
D15*
%TO.C,TP1*%
X145000000Y-72000000D03*
%TD*%
D16*
%TO.C,U1*%
X155525000Y-67095000D03*
X155525000Y-68365000D03*
X155525000Y-69635000D03*
X155525000Y-70905000D03*
X160475000Y-70905000D03*
X160475000Y-69635000D03*
X160475000Y-68365000D03*
X160475000Y-67095000D03*
%TD*%
%LPD*%
M02*
