%TF.GenerationSoftware,KiCad,Pcbnew,9.0.7+1*%
%TF.CreationDate,2026-05-26T01:48:58+00:00*%
%TF.ProjectId,FIC-100A,4649432d-3130-4304-912e-6b696361645f,rev?*%
%TF.SameCoordinates,Original*%
%TF.FileFunction,Legend,Top*%
%TF.FilePolarity,Positive*%
%FSLAX46Y46*%
G04 Gerber Fmt 4.6, Leading zero omitted, Abs format (unit mm)*
G04 Created by KiCad (PCBNEW 9.0.7+1) date 2026-05-26 01:48:58*
%MOMM*%
%LPD*%
G01*
G04 APERTURE LIST*
G04 Aperture macros list*
%AMRoundRect*
0 Rectangle with rounded corners*
0 $1 Rounding radius*
0 $2 $3 $4 $5 $6 $7 $8 $9 X,Y pos of 4 corners*
0 Add a 4 corners polygon primitive as box body*
4,1,4,$2,$3,$4,$5,$6,$7,$8,$9,$2,$3,0*
0 Add four circle primitives for the rounded corners*
1,1,$1+$1,$2,$3*
1,1,$1+$1,$4,$5*
1,1,$1+$1,$6,$7*
1,1,$1+$1,$8,$9*
0 Add four rect primitives between the rounded corners*
20,1,$1+$1,$2,$3,$4,$5,0*
20,1,$1+$1,$4,$5,$6,$7,0*
20,1,$1+$1,$6,$7,$8,$9,0*
20,1,$1+$1,$8,$9,$2,$3,0*%
G04 Aperture macros list end*
%ADD10C,0.250000*%
%ADD11C,0.150000*%
%ADD12C,0.120000*%
%ADD13C,0.000000*%
%ADD14RoundRect,0.050000X-0.600000X-0.200000X0.600000X-0.200000X0.600000X0.200000X-0.600000X0.200000X0*%
%ADD15C,1.100000*%
%ADD16RoundRect,0.050000X-0.750000X0.500000X-0.750000X-0.500000X0.750000X-0.500000X0.750000X0.500000X0*%
%ADD17RoundRect,0.268750X0.268750X0.481250X-0.268750X0.481250X-0.268750X-0.481250X0.268750X-0.481250X0*%
%ADD18C,4.600000*%
%ADD19RoundRect,0.050000X-0.500000X-0.500000X0.500000X-0.500000X0.500000X0.500000X-0.500000X0.500000X0*%
%ADD20RoundRect,0.225000X0.225000X0.300000X-0.225000X0.300000X-0.225000X-0.300000X0.225000X-0.300000X0*%
%ADD21RoundRect,0.225000X0.300000X-0.225000X0.300000X0.225000X-0.300000X0.225000X-0.300000X-0.225000X0*%
%ADD22C,2.000000*%
%ADD23RoundRect,0.260870X0.939130X-1.039130X0.939130X1.039130X-0.939130X1.039130X-0.939130X-1.039130X0*%
%ADD24RoundRect,0.225000X-0.225000X-0.300000X0.225000X-0.300000X0.225000X0.300000X-0.225000X0.300000X0*%
%ADD25RoundRect,0.250000X0.275000X-0.250000X0.275000X0.250000X-0.275000X0.250000X-0.275000X-0.250000X0*%
%ADD26RoundRect,0.243750X0.243750X0.281250X-0.243750X0.281250X-0.243750X-0.281250X0.243750X-0.281250X0*%
%ADD27RoundRect,0.267985X-0.489515X-0.477015X0.489515X-0.477015X0.489515X0.477015X-0.489515X0.477015X0*%
%ADD28RoundRect,0.250000X0.250000X0.275000X-0.250000X0.275000X-0.250000X-0.275000X0.250000X-0.275000X0*%
%ADD29RoundRect,0.175000X-0.850000X-0.175000X0.850000X-0.175000X0.850000X0.175000X-0.850000X0.175000X0*%
%ADD30C,0.750000*%
%ADD31RoundRect,0.175000X0.175000X0.450000X-0.175000X0.450000X-0.175000X-0.450000X0.175000X-0.450000X0*%
%ADD32RoundRect,0.100000X0.100000X0.525000X-0.100000X0.525000X-0.100000X-0.525000X0.100000X-0.525000X0*%
%ADD33O,1.100000X2.200000*%
%ADD34O,1.100000X1.900000*%
%ADD35RoundRect,0.175000X-0.175000X0.537500X-0.175000X-0.537500X0.175000X-0.537500X0.175000X0.537500X0*%
%ADD36RoundRect,0.050000X0.900000X0.900000X-0.900000X0.900000X-0.900000X-0.900000X0.900000X-0.900000X0*%
%ADD37C,1.900000*%
%ADD38C,0.700000*%
G04 APERTURE END LIST*
D10*
G36*
X158157711Y-83038904D02*
G01*
X158028377Y-83038904D01*
X158093043Y-82844903D01*
X158157711Y-83038904D01*
G37*
G36*
X158675395Y-83698637D02*
G01*
X157510693Y-83698637D01*
X157510693Y-83433985D01*
X157635693Y-83433985D01*
X157639150Y-83482634D01*
X157660962Y-83526259D01*
X157697808Y-83558214D01*
X157744077Y-83573637D01*
X157792726Y-83570180D01*
X157836351Y-83548368D01*
X157868306Y-83511522D01*
X157878296Y-83489147D01*
X157945044Y-83288904D01*
X158241044Y-83288904D01*
X158307791Y-83489147D01*
X158317782Y-83511522D01*
X158349737Y-83548368D01*
X158393361Y-83570180D01*
X158442011Y-83573637D01*
X158488280Y-83558214D01*
X158525126Y-83526258D01*
X158546938Y-83482634D01*
X158550395Y-83433984D01*
X158544962Y-83410090D01*
X158211629Y-82410091D01*
X158201639Y-82387716D01*
X158195787Y-82380968D01*
X158191793Y-82372980D01*
X158179955Y-82362713D01*
X158169684Y-82350870D01*
X158161692Y-82346874D01*
X158154947Y-82341024D01*
X158140079Y-82336068D01*
X158126059Y-82329058D01*
X158117149Y-82328424D01*
X158108678Y-82325601D01*
X158093043Y-82326711D01*
X158077410Y-82325601D01*
X158068938Y-82328424D01*
X158060028Y-82329058D01*
X158046006Y-82336069D01*
X158031141Y-82341024D01*
X158024395Y-82346874D01*
X158016404Y-82350870D01*
X158006135Y-82362710D01*
X157994295Y-82372979D01*
X157990299Y-82380969D01*
X157984449Y-82387716D01*
X157974458Y-82410091D01*
X157641126Y-83410091D01*
X157635693Y-83433985D01*
X157510693Y-83433985D01*
X157510693Y-82200601D01*
X158675395Y-82200601D01*
X158675395Y-83698637D01*
G37*
X154973996Y-83449619D02*
X154640663Y-82973428D01*
X154402568Y-83449619D02*
X154402568Y-82449619D01*
X154402568Y-82449619D02*
X154783520Y-82449619D01*
X154783520Y-82449619D02*
X154878758Y-82497238D01*
X154878758Y-82497238D02*
X154926377Y-82544857D01*
X154926377Y-82544857D02*
X154973996Y-82640095D01*
X154973996Y-82640095D02*
X154973996Y-82782952D01*
X154973996Y-82782952D02*
X154926377Y-82878190D01*
X154926377Y-82878190D02*
X154878758Y-82925809D01*
X154878758Y-82925809D02*
X154783520Y-82973428D01*
X154783520Y-82973428D02*
X154402568Y-82973428D01*
X155402568Y-82925809D02*
X155735901Y-82925809D01*
X155878758Y-83449619D02*
X155402568Y-83449619D01*
X155402568Y-83449619D02*
X155402568Y-82449619D01*
X155402568Y-82449619D02*
X155878758Y-82449619D01*
X156164473Y-82449619D02*
X156497806Y-83449619D01*
X156497806Y-83449619D02*
X156831139Y-82449619D01*
X154735901Y-81425809D02*
X154402568Y-81425809D01*
X154402568Y-81949619D02*
X154402568Y-80949619D01*
X154402568Y-80949619D02*
X154878758Y-80949619D01*
X155259711Y-81949619D02*
X155259711Y-80949619D01*
X156307329Y-81854380D02*
X156259710Y-81902000D01*
X156259710Y-81902000D02*
X156116853Y-81949619D01*
X156116853Y-81949619D02*
X156021615Y-81949619D01*
X156021615Y-81949619D02*
X155878758Y-81902000D01*
X155878758Y-81902000D02*
X155783520Y-81806761D01*
X155783520Y-81806761D02*
X155735901Y-81711523D01*
X155735901Y-81711523D02*
X155688282Y-81521047D01*
X155688282Y-81521047D02*
X155688282Y-81378190D01*
X155688282Y-81378190D02*
X155735901Y-81187714D01*
X155735901Y-81187714D02*
X155783520Y-81092476D01*
X155783520Y-81092476D02*
X155878758Y-80997238D01*
X155878758Y-80997238D02*
X156021615Y-80949619D01*
X156021615Y-80949619D02*
X156116853Y-80949619D01*
X156116853Y-80949619D02*
X156259710Y-80997238D01*
X156259710Y-80997238D02*
X156307329Y-81044857D01*
X156735901Y-81568666D02*
X157497806Y-81568666D01*
X158497805Y-81949619D02*
X157926377Y-81949619D01*
X158212091Y-81949619D02*
X158212091Y-80949619D01*
X158212091Y-80949619D02*
X158116853Y-81092476D01*
X158116853Y-81092476D02*
X158021615Y-81187714D01*
X158021615Y-81187714D02*
X157926377Y-81235333D01*
X159116853Y-80949619D02*
X159212091Y-80949619D01*
X159212091Y-80949619D02*
X159307329Y-80997238D01*
X159307329Y-80997238D02*
X159354948Y-81044857D01*
X159354948Y-81044857D02*
X159402567Y-81140095D01*
X159402567Y-81140095D02*
X159450186Y-81330571D01*
X159450186Y-81330571D02*
X159450186Y-81568666D01*
X159450186Y-81568666D02*
X159402567Y-81759142D01*
X159402567Y-81759142D02*
X159354948Y-81854380D01*
X159354948Y-81854380D02*
X159307329Y-81902000D01*
X159307329Y-81902000D02*
X159212091Y-81949619D01*
X159212091Y-81949619D02*
X159116853Y-81949619D01*
X159116853Y-81949619D02*
X159021615Y-81902000D01*
X159021615Y-81902000D02*
X158973996Y-81854380D01*
X158973996Y-81854380D02*
X158926377Y-81759142D01*
X158926377Y-81759142D02*
X158878758Y-81568666D01*
X158878758Y-81568666D02*
X158878758Y-81330571D01*
X158878758Y-81330571D02*
X158926377Y-81140095D01*
X158926377Y-81140095D02*
X158973996Y-81044857D01*
X158973996Y-81044857D02*
X159021615Y-80997238D01*
X159021615Y-80997238D02*
X159116853Y-80949619D01*
X160069234Y-80949619D02*
X160164472Y-80949619D01*
X160164472Y-80949619D02*
X160259710Y-80997238D01*
X160259710Y-80997238D02*
X160307329Y-81044857D01*
X160307329Y-81044857D02*
X160354948Y-81140095D01*
X160354948Y-81140095D02*
X160402567Y-81330571D01*
X160402567Y-81330571D02*
X160402567Y-81568666D01*
X160402567Y-81568666D02*
X160354948Y-81759142D01*
X160354948Y-81759142D02*
X160307329Y-81854380D01*
X160307329Y-81854380D02*
X160259710Y-81902000D01*
X160259710Y-81902000D02*
X160164472Y-81949619D01*
X160164472Y-81949619D02*
X160069234Y-81949619D01*
X160069234Y-81949619D02*
X159973996Y-81902000D01*
X159973996Y-81902000D02*
X159926377Y-81854380D01*
X159926377Y-81854380D02*
X159878758Y-81759142D01*
X159878758Y-81759142D02*
X159831139Y-81568666D01*
X159831139Y-81568666D02*
X159831139Y-81330571D01*
X159831139Y-81330571D02*
X159878758Y-81140095D01*
X159878758Y-81140095D02*
X159926377Y-81044857D01*
X159926377Y-81044857D02*
X159973996Y-80997238D01*
X159973996Y-80997238D02*
X160069234Y-80949619D01*
X160783520Y-81663904D02*
X161259710Y-81663904D01*
X160688282Y-81949619D02*
X161021615Y-80949619D01*
X161021615Y-80949619D02*
X161354948Y-81949619D01*
D11*
X134738096Y-95204819D02*
X134738096Y-96014342D01*
X134738096Y-96014342D02*
X134785715Y-96109580D01*
X134785715Y-96109580D02*
X134833334Y-96157200D01*
X134833334Y-96157200D02*
X134928572Y-96204819D01*
X134928572Y-96204819D02*
X135119048Y-96204819D01*
X135119048Y-96204819D02*
X135214286Y-96157200D01*
X135214286Y-96157200D02*
X135261905Y-96109580D01*
X135261905Y-96109580D02*
X135309524Y-96014342D01*
X135309524Y-96014342D02*
X135309524Y-95204819D01*
X135690477Y-95204819D02*
X136309524Y-95204819D01*
X136309524Y-95204819D02*
X135976191Y-95585771D01*
X135976191Y-95585771D02*
X136119048Y-95585771D01*
X136119048Y-95585771D02*
X136214286Y-95633390D01*
X136214286Y-95633390D02*
X136261905Y-95681009D01*
X136261905Y-95681009D02*
X136309524Y-95776247D01*
X136309524Y-95776247D02*
X136309524Y-96014342D01*
X136309524Y-96014342D02*
X136261905Y-96109580D01*
X136261905Y-96109580D02*
X136214286Y-96157200D01*
X136214286Y-96157200D02*
X136119048Y-96204819D01*
X136119048Y-96204819D02*
X135833334Y-96204819D01*
X135833334Y-96204819D02*
X135738096Y-96157200D01*
X135738096Y-96157200D02*
X135690477Y-96109580D01*
X142362295Y-83316665D02*
X142933723Y-83316665D01*
X142933723Y-83316665D02*
X143048009Y-83354760D01*
X143048009Y-83354760D02*
X143124200Y-83430951D01*
X143124200Y-83430951D02*
X143162295Y-83545236D01*
X143162295Y-83545236D02*
X143162295Y-83621427D01*
X143162295Y-82935712D02*
X142362295Y-82935712D01*
X142362295Y-82935712D02*
X142362295Y-82630950D01*
X142362295Y-82630950D02*
X142400390Y-82554760D01*
X142400390Y-82554760D02*
X142438485Y-82516665D01*
X142438485Y-82516665D02*
X142514676Y-82478569D01*
X142514676Y-82478569D02*
X142628961Y-82478569D01*
X142628961Y-82478569D02*
X142705152Y-82516665D01*
X142705152Y-82516665D02*
X142743247Y-82554760D01*
X142743247Y-82554760D02*
X142781342Y-82630950D01*
X142781342Y-82630950D02*
X142781342Y-82935712D01*
X143162295Y-81716665D02*
X143162295Y-82173808D01*
X143162295Y-81945236D02*
X142362295Y-81945236D01*
X142362295Y-81945236D02*
X142476580Y-82021427D01*
X142476580Y-82021427D02*
X142552771Y-82097617D01*
X142552771Y-82097617D02*
X142590866Y-82173808D01*
X159909524Y-101612295D02*
X159909524Y-100812295D01*
X159909524Y-100812295D02*
X160100000Y-100812295D01*
X160100000Y-100812295D02*
X160214286Y-100850390D01*
X160214286Y-100850390D02*
X160290476Y-100926580D01*
X160290476Y-100926580D02*
X160328571Y-101002771D01*
X160328571Y-101002771D02*
X160366667Y-101155152D01*
X160366667Y-101155152D02*
X160366667Y-101269438D01*
X160366667Y-101269438D02*
X160328571Y-101421819D01*
X160328571Y-101421819D02*
X160290476Y-101498009D01*
X160290476Y-101498009D02*
X160214286Y-101574200D01*
X160214286Y-101574200D02*
X160100000Y-101612295D01*
X160100000Y-101612295D02*
X159909524Y-101612295D01*
X160633333Y-100812295D02*
X161128571Y-100812295D01*
X161128571Y-100812295D02*
X160861905Y-101117057D01*
X160861905Y-101117057D02*
X160976190Y-101117057D01*
X160976190Y-101117057D02*
X161052381Y-101155152D01*
X161052381Y-101155152D02*
X161090476Y-101193247D01*
X161090476Y-101193247D02*
X161128571Y-101269438D01*
X161128571Y-101269438D02*
X161128571Y-101459914D01*
X161128571Y-101459914D02*
X161090476Y-101536104D01*
X161090476Y-101536104D02*
X161052381Y-101574200D01*
X161052381Y-101574200D02*
X160976190Y-101612295D01*
X160976190Y-101612295D02*
X160747619Y-101612295D01*
X160747619Y-101612295D02*
X160671428Y-101574200D01*
X160671428Y-101574200D02*
X160633333Y-101536104D01*
X138735714Y-97862295D02*
X138469047Y-97481342D01*
X138278571Y-97862295D02*
X138278571Y-97062295D01*
X138278571Y-97062295D02*
X138583333Y-97062295D01*
X138583333Y-97062295D02*
X138659523Y-97100390D01*
X138659523Y-97100390D02*
X138697618Y-97138485D01*
X138697618Y-97138485D02*
X138735714Y-97214676D01*
X138735714Y-97214676D02*
X138735714Y-97328961D01*
X138735714Y-97328961D02*
X138697618Y-97405152D01*
X138697618Y-97405152D02*
X138659523Y-97443247D01*
X138659523Y-97443247D02*
X138583333Y-97481342D01*
X138583333Y-97481342D02*
X138278571Y-97481342D01*
X139497618Y-97862295D02*
X139040475Y-97862295D01*
X139269047Y-97862295D02*
X139269047Y-97062295D01*
X139269047Y-97062295D02*
X139192856Y-97176580D01*
X139192856Y-97176580D02*
X139116666Y-97252771D01*
X139116666Y-97252771D02*
X139040475Y-97290866D01*
X139802380Y-97138485D02*
X139840476Y-97100390D01*
X139840476Y-97100390D02*
X139916666Y-97062295D01*
X139916666Y-97062295D02*
X140107142Y-97062295D01*
X140107142Y-97062295D02*
X140183333Y-97100390D01*
X140183333Y-97100390D02*
X140221428Y-97138485D01*
X140221428Y-97138485D02*
X140259523Y-97214676D01*
X140259523Y-97214676D02*
X140259523Y-97290866D01*
X140259523Y-97290866D02*
X140221428Y-97405152D01*
X140221428Y-97405152D02*
X139764285Y-97862295D01*
X139764285Y-97862295D02*
X140259523Y-97862295D01*
X146612295Y-91815832D02*
X146231342Y-92082499D01*
X146612295Y-92272975D02*
X145812295Y-92272975D01*
X145812295Y-92272975D02*
X145812295Y-91968213D01*
X145812295Y-91968213D02*
X145850390Y-91892023D01*
X145850390Y-91892023D02*
X145888485Y-91853928D01*
X145888485Y-91853928D02*
X145964676Y-91815832D01*
X145964676Y-91815832D02*
X146078961Y-91815832D01*
X146078961Y-91815832D02*
X146155152Y-91853928D01*
X146155152Y-91853928D02*
X146193247Y-91892023D01*
X146193247Y-91892023D02*
X146231342Y-91968213D01*
X146231342Y-91968213D02*
X146231342Y-92272975D01*
X146612295Y-91434880D02*
X146612295Y-91282499D01*
X146612295Y-91282499D02*
X146574200Y-91206309D01*
X146574200Y-91206309D02*
X146536104Y-91168213D01*
X146536104Y-91168213D02*
X146421819Y-91092023D01*
X146421819Y-91092023D02*
X146269438Y-91053928D01*
X146269438Y-91053928D02*
X145964676Y-91053928D01*
X145964676Y-91053928D02*
X145888485Y-91092023D01*
X145888485Y-91092023D02*
X145850390Y-91130118D01*
X145850390Y-91130118D02*
X145812295Y-91206309D01*
X145812295Y-91206309D02*
X145812295Y-91358690D01*
X145812295Y-91358690D02*
X145850390Y-91434880D01*
X145850390Y-91434880D02*
X145888485Y-91472975D01*
X145888485Y-91472975D02*
X145964676Y-91511071D01*
X145964676Y-91511071D02*
X146155152Y-91511071D01*
X146155152Y-91511071D02*
X146231342Y-91472975D01*
X146231342Y-91472975D02*
X146269438Y-91434880D01*
X146269438Y-91434880D02*
X146307533Y-91358690D01*
X146307533Y-91358690D02*
X146307533Y-91206309D01*
X146307533Y-91206309D02*
X146269438Y-91130118D01*
X146269438Y-91130118D02*
X146231342Y-91092023D01*
X146231342Y-91092023D02*
X146155152Y-91053928D01*
X134954819Y-82664094D02*
X133954819Y-82664094D01*
X133954819Y-82664094D02*
X133954819Y-82425999D01*
X133954819Y-82425999D02*
X134002438Y-82283142D01*
X134002438Y-82283142D02*
X134097676Y-82187904D01*
X134097676Y-82187904D02*
X134192914Y-82140285D01*
X134192914Y-82140285D02*
X134383390Y-82092666D01*
X134383390Y-82092666D02*
X134526247Y-82092666D01*
X134526247Y-82092666D02*
X134716723Y-82140285D01*
X134716723Y-82140285D02*
X134811961Y-82187904D01*
X134811961Y-82187904D02*
X134907200Y-82283142D01*
X134907200Y-82283142D02*
X134954819Y-82425999D01*
X134954819Y-82425999D02*
X134954819Y-82664094D01*
X134954819Y-81140285D02*
X134954819Y-81711713D01*
X134954819Y-81425999D02*
X133954819Y-81425999D01*
X133954819Y-81425999D02*
X134097676Y-81521237D01*
X134097676Y-81521237D02*
X134192914Y-81616475D01*
X134192914Y-81616475D02*
X134240533Y-81711713D01*
X157941667Y-95112295D02*
X157675000Y-94731342D01*
X157484524Y-95112295D02*
X157484524Y-94312295D01*
X157484524Y-94312295D02*
X157789286Y-94312295D01*
X157789286Y-94312295D02*
X157865476Y-94350390D01*
X157865476Y-94350390D02*
X157903571Y-94388485D01*
X157903571Y-94388485D02*
X157941667Y-94464676D01*
X157941667Y-94464676D02*
X157941667Y-94578961D01*
X157941667Y-94578961D02*
X157903571Y-94655152D01*
X157903571Y-94655152D02*
X157865476Y-94693247D01*
X157865476Y-94693247D02*
X157789286Y-94731342D01*
X157789286Y-94731342D02*
X157484524Y-94731342D01*
X158208333Y-94312295D02*
X158703571Y-94312295D01*
X158703571Y-94312295D02*
X158436905Y-94617057D01*
X158436905Y-94617057D02*
X158551190Y-94617057D01*
X158551190Y-94617057D02*
X158627381Y-94655152D01*
X158627381Y-94655152D02*
X158665476Y-94693247D01*
X158665476Y-94693247D02*
X158703571Y-94769438D01*
X158703571Y-94769438D02*
X158703571Y-94959914D01*
X158703571Y-94959914D02*
X158665476Y-95036104D01*
X158665476Y-95036104D02*
X158627381Y-95074200D01*
X158627381Y-95074200D02*
X158551190Y-95112295D01*
X158551190Y-95112295D02*
X158322619Y-95112295D01*
X158322619Y-95112295D02*
X158246428Y-95074200D01*
X158246428Y-95074200D02*
X158208333Y-95036104D01*
X159985714Y-96612295D02*
X159719047Y-96231342D01*
X159528571Y-96612295D02*
X159528571Y-95812295D01*
X159528571Y-95812295D02*
X159833333Y-95812295D01*
X159833333Y-95812295D02*
X159909523Y-95850390D01*
X159909523Y-95850390D02*
X159947618Y-95888485D01*
X159947618Y-95888485D02*
X159985714Y-95964676D01*
X159985714Y-95964676D02*
X159985714Y-96078961D01*
X159985714Y-96078961D02*
X159947618Y-96155152D01*
X159947618Y-96155152D02*
X159909523Y-96193247D01*
X159909523Y-96193247D02*
X159833333Y-96231342D01*
X159833333Y-96231342D02*
X159528571Y-96231342D01*
X160747618Y-96612295D02*
X160290475Y-96612295D01*
X160519047Y-96612295D02*
X160519047Y-95812295D01*
X160519047Y-95812295D02*
X160442856Y-95926580D01*
X160442856Y-95926580D02*
X160366666Y-96002771D01*
X160366666Y-96002771D02*
X160290475Y-96040866D01*
X161242857Y-95812295D02*
X161319047Y-95812295D01*
X161319047Y-95812295D02*
X161395238Y-95850390D01*
X161395238Y-95850390D02*
X161433333Y-95888485D01*
X161433333Y-95888485D02*
X161471428Y-95964676D01*
X161471428Y-95964676D02*
X161509523Y-96117057D01*
X161509523Y-96117057D02*
X161509523Y-96307533D01*
X161509523Y-96307533D02*
X161471428Y-96459914D01*
X161471428Y-96459914D02*
X161433333Y-96536104D01*
X161433333Y-96536104D02*
X161395238Y-96574200D01*
X161395238Y-96574200D02*
X161319047Y-96612295D01*
X161319047Y-96612295D02*
X161242857Y-96612295D01*
X161242857Y-96612295D02*
X161166666Y-96574200D01*
X161166666Y-96574200D02*
X161128571Y-96536104D01*
X161128571Y-96536104D02*
X161090476Y-96459914D01*
X161090476Y-96459914D02*
X161052380Y-96307533D01*
X161052380Y-96307533D02*
X161052380Y-96117057D01*
X161052380Y-96117057D02*
X161090476Y-95964676D01*
X161090476Y-95964676D02*
X161128571Y-95888485D01*
X161128571Y-95888485D02*
X161166666Y-95850390D01*
X161166666Y-95850390D02*
X161242857Y-95812295D01*
X145036104Y-88883332D02*
X145074200Y-88921428D01*
X145074200Y-88921428D02*
X145112295Y-89035713D01*
X145112295Y-89035713D02*
X145112295Y-89111904D01*
X145112295Y-89111904D02*
X145074200Y-89226190D01*
X145074200Y-89226190D02*
X144998009Y-89302380D01*
X144998009Y-89302380D02*
X144921819Y-89340475D01*
X144921819Y-89340475D02*
X144769438Y-89378571D01*
X144769438Y-89378571D02*
X144655152Y-89378571D01*
X144655152Y-89378571D02*
X144502771Y-89340475D01*
X144502771Y-89340475D02*
X144426580Y-89302380D01*
X144426580Y-89302380D02*
X144350390Y-89226190D01*
X144350390Y-89226190D02*
X144312295Y-89111904D01*
X144312295Y-89111904D02*
X144312295Y-89035713D01*
X144312295Y-89035713D02*
X144350390Y-88921428D01*
X144350390Y-88921428D02*
X144388485Y-88883332D01*
X145112295Y-88121428D02*
X145112295Y-88578571D01*
X145112295Y-88349999D02*
X144312295Y-88349999D01*
X144312295Y-88349999D02*
X144426580Y-88426190D01*
X144426580Y-88426190D02*
X144502771Y-88502380D01*
X144502771Y-88502380D02*
X144540866Y-88578571D01*
X135909524Y-101612295D02*
X135909524Y-100812295D01*
X135909524Y-100812295D02*
X136100000Y-100812295D01*
X136100000Y-100812295D02*
X136214286Y-100850390D01*
X136214286Y-100850390D02*
X136290476Y-100926580D01*
X136290476Y-100926580D02*
X136328571Y-101002771D01*
X136328571Y-101002771D02*
X136366667Y-101155152D01*
X136366667Y-101155152D02*
X136366667Y-101269438D01*
X136366667Y-101269438D02*
X136328571Y-101421819D01*
X136328571Y-101421819D02*
X136290476Y-101498009D01*
X136290476Y-101498009D02*
X136214286Y-101574200D01*
X136214286Y-101574200D02*
X136100000Y-101612295D01*
X136100000Y-101612295D02*
X135909524Y-101612295D01*
X137090476Y-100812295D02*
X136709524Y-100812295D01*
X136709524Y-100812295D02*
X136671428Y-101193247D01*
X136671428Y-101193247D02*
X136709524Y-101155152D01*
X136709524Y-101155152D02*
X136785714Y-101117057D01*
X136785714Y-101117057D02*
X136976190Y-101117057D01*
X136976190Y-101117057D02*
X137052381Y-101155152D01*
X137052381Y-101155152D02*
X137090476Y-101193247D01*
X137090476Y-101193247D02*
X137128571Y-101269438D01*
X137128571Y-101269438D02*
X137128571Y-101459914D01*
X137128571Y-101459914D02*
X137090476Y-101536104D01*
X137090476Y-101536104D02*
X137052381Y-101574200D01*
X137052381Y-101574200D02*
X136976190Y-101612295D01*
X136976190Y-101612295D02*
X136785714Y-101612295D01*
X136785714Y-101612295D02*
X136709524Y-101574200D01*
X136709524Y-101574200D02*
X136671428Y-101536104D01*
X151112295Y-91815832D02*
X150731342Y-92082499D01*
X151112295Y-92272975D02*
X150312295Y-92272975D01*
X150312295Y-92272975D02*
X150312295Y-91968213D01*
X150312295Y-91968213D02*
X150350390Y-91892023D01*
X150350390Y-91892023D02*
X150388485Y-91853928D01*
X150388485Y-91853928D02*
X150464676Y-91815832D01*
X150464676Y-91815832D02*
X150578961Y-91815832D01*
X150578961Y-91815832D02*
X150655152Y-91853928D01*
X150655152Y-91853928D02*
X150693247Y-91892023D01*
X150693247Y-91892023D02*
X150731342Y-91968213D01*
X150731342Y-91968213D02*
X150731342Y-92272975D01*
X150655152Y-91358690D02*
X150617057Y-91434880D01*
X150617057Y-91434880D02*
X150578961Y-91472975D01*
X150578961Y-91472975D02*
X150502771Y-91511071D01*
X150502771Y-91511071D02*
X150464676Y-91511071D01*
X150464676Y-91511071D02*
X150388485Y-91472975D01*
X150388485Y-91472975D02*
X150350390Y-91434880D01*
X150350390Y-91434880D02*
X150312295Y-91358690D01*
X150312295Y-91358690D02*
X150312295Y-91206309D01*
X150312295Y-91206309D02*
X150350390Y-91130118D01*
X150350390Y-91130118D02*
X150388485Y-91092023D01*
X150388485Y-91092023D02*
X150464676Y-91053928D01*
X150464676Y-91053928D02*
X150502771Y-91053928D01*
X150502771Y-91053928D02*
X150578961Y-91092023D01*
X150578961Y-91092023D02*
X150617057Y-91130118D01*
X150617057Y-91130118D02*
X150655152Y-91206309D01*
X150655152Y-91206309D02*
X150655152Y-91358690D01*
X150655152Y-91358690D02*
X150693247Y-91434880D01*
X150693247Y-91434880D02*
X150731342Y-91472975D01*
X150731342Y-91472975D02*
X150807533Y-91511071D01*
X150807533Y-91511071D02*
X150959914Y-91511071D01*
X150959914Y-91511071D02*
X151036104Y-91472975D01*
X151036104Y-91472975D02*
X151074200Y-91434880D01*
X151074200Y-91434880D02*
X151112295Y-91358690D01*
X151112295Y-91358690D02*
X151112295Y-91206309D01*
X151112295Y-91206309D02*
X151074200Y-91130118D01*
X151074200Y-91130118D02*
X151036104Y-91092023D01*
X151036104Y-91092023D02*
X150959914Y-91053928D01*
X150959914Y-91053928D02*
X150807533Y-91053928D01*
X150807533Y-91053928D02*
X150731342Y-91092023D01*
X150731342Y-91092023D02*
X150693247Y-91130118D01*
X150693247Y-91130118D02*
X150655152Y-91206309D01*
X143443247Y-85916666D02*
X143443247Y-86183332D01*
X143862295Y-86183332D02*
X143062295Y-86183332D01*
X143062295Y-86183332D02*
X143062295Y-85802380D01*
X143443247Y-85230952D02*
X143481342Y-85116666D01*
X143481342Y-85116666D02*
X143519438Y-85078571D01*
X143519438Y-85078571D02*
X143595628Y-85040475D01*
X143595628Y-85040475D02*
X143709914Y-85040475D01*
X143709914Y-85040475D02*
X143786104Y-85078571D01*
X143786104Y-85078571D02*
X143824200Y-85116666D01*
X143824200Y-85116666D02*
X143862295Y-85192856D01*
X143862295Y-85192856D02*
X143862295Y-85497618D01*
X143862295Y-85497618D02*
X143062295Y-85497618D01*
X143062295Y-85497618D02*
X143062295Y-85230952D01*
X143062295Y-85230952D02*
X143100390Y-85154761D01*
X143100390Y-85154761D02*
X143138485Y-85116666D01*
X143138485Y-85116666D02*
X143214676Y-85078571D01*
X143214676Y-85078571D02*
X143290866Y-85078571D01*
X143290866Y-85078571D02*
X143367057Y-85116666D01*
X143367057Y-85116666D02*
X143405152Y-85154761D01*
X143405152Y-85154761D02*
X143443247Y-85230952D01*
X143443247Y-85230952D02*
X143443247Y-85497618D01*
X143862295Y-84278571D02*
X143862295Y-84735714D01*
X143862295Y-84507142D02*
X143062295Y-84507142D01*
X143062295Y-84507142D02*
X143176580Y-84583333D01*
X143176580Y-84583333D02*
X143252771Y-84659523D01*
X143252771Y-84659523D02*
X143290866Y-84735714D01*
X165616667Y-91112295D02*
X165350000Y-90731342D01*
X165159524Y-91112295D02*
X165159524Y-90312295D01*
X165159524Y-90312295D02*
X165464286Y-90312295D01*
X165464286Y-90312295D02*
X165540476Y-90350390D01*
X165540476Y-90350390D02*
X165578571Y-90388485D01*
X165578571Y-90388485D02*
X165616667Y-90464676D01*
X165616667Y-90464676D02*
X165616667Y-90578961D01*
X165616667Y-90578961D02*
X165578571Y-90655152D01*
X165578571Y-90655152D02*
X165540476Y-90693247D01*
X165540476Y-90693247D02*
X165464286Y-90731342D01*
X165464286Y-90731342D02*
X165159524Y-90731342D01*
X165921428Y-90388485D02*
X165959524Y-90350390D01*
X165959524Y-90350390D02*
X166035714Y-90312295D01*
X166035714Y-90312295D02*
X166226190Y-90312295D01*
X166226190Y-90312295D02*
X166302381Y-90350390D01*
X166302381Y-90350390D02*
X166340476Y-90388485D01*
X166340476Y-90388485D02*
X166378571Y-90464676D01*
X166378571Y-90464676D02*
X166378571Y-90540866D01*
X166378571Y-90540866D02*
X166340476Y-90655152D01*
X166340476Y-90655152D02*
X165883333Y-91112295D01*
X165883333Y-91112295D02*
X166378571Y-91112295D01*
X144366667Y-87786104D02*
X144328571Y-87824200D01*
X144328571Y-87824200D02*
X144214286Y-87862295D01*
X144214286Y-87862295D02*
X144138095Y-87862295D01*
X144138095Y-87862295D02*
X144023809Y-87824200D01*
X144023809Y-87824200D02*
X143947619Y-87748009D01*
X143947619Y-87748009D02*
X143909524Y-87671819D01*
X143909524Y-87671819D02*
X143871428Y-87519438D01*
X143871428Y-87519438D02*
X143871428Y-87405152D01*
X143871428Y-87405152D02*
X143909524Y-87252771D01*
X143909524Y-87252771D02*
X143947619Y-87176580D01*
X143947619Y-87176580D02*
X144023809Y-87100390D01*
X144023809Y-87100390D02*
X144138095Y-87062295D01*
X144138095Y-87062295D02*
X144214286Y-87062295D01*
X144214286Y-87062295D02*
X144328571Y-87100390D01*
X144328571Y-87100390D02*
X144366667Y-87138485D01*
X145052381Y-87062295D02*
X144900000Y-87062295D01*
X144900000Y-87062295D02*
X144823809Y-87100390D01*
X144823809Y-87100390D02*
X144785714Y-87138485D01*
X144785714Y-87138485D02*
X144709524Y-87252771D01*
X144709524Y-87252771D02*
X144671428Y-87405152D01*
X144671428Y-87405152D02*
X144671428Y-87709914D01*
X144671428Y-87709914D02*
X144709524Y-87786104D01*
X144709524Y-87786104D02*
X144747619Y-87824200D01*
X144747619Y-87824200D02*
X144823809Y-87862295D01*
X144823809Y-87862295D02*
X144976190Y-87862295D01*
X144976190Y-87862295D02*
X145052381Y-87824200D01*
X145052381Y-87824200D02*
X145090476Y-87786104D01*
X145090476Y-87786104D02*
X145128571Y-87709914D01*
X145128571Y-87709914D02*
X145128571Y-87519438D01*
X145128571Y-87519438D02*
X145090476Y-87443247D01*
X145090476Y-87443247D02*
X145052381Y-87405152D01*
X145052381Y-87405152D02*
X144976190Y-87367057D01*
X144976190Y-87367057D02*
X144823809Y-87367057D01*
X144823809Y-87367057D02*
X144747619Y-87405152D01*
X144747619Y-87405152D02*
X144709524Y-87443247D01*
X144709524Y-87443247D02*
X144671428Y-87519438D01*
X142616667Y-91286104D02*
X142578571Y-91324200D01*
X142578571Y-91324200D02*
X142464286Y-91362295D01*
X142464286Y-91362295D02*
X142388095Y-91362295D01*
X142388095Y-91362295D02*
X142273809Y-91324200D01*
X142273809Y-91324200D02*
X142197619Y-91248009D01*
X142197619Y-91248009D02*
X142159524Y-91171819D01*
X142159524Y-91171819D02*
X142121428Y-91019438D01*
X142121428Y-91019438D02*
X142121428Y-90905152D01*
X142121428Y-90905152D02*
X142159524Y-90752771D01*
X142159524Y-90752771D02*
X142197619Y-90676580D01*
X142197619Y-90676580D02*
X142273809Y-90600390D01*
X142273809Y-90600390D02*
X142388095Y-90562295D01*
X142388095Y-90562295D02*
X142464286Y-90562295D01*
X142464286Y-90562295D02*
X142578571Y-90600390D01*
X142578571Y-90600390D02*
X142616667Y-90638485D01*
X143302381Y-90828961D02*
X143302381Y-91362295D01*
X143111905Y-90524200D02*
X142921428Y-91095628D01*
X142921428Y-91095628D02*
X143416667Y-91095628D01*
X141286104Y-95408332D02*
X141324200Y-95446428D01*
X141324200Y-95446428D02*
X141362295Y-95560713D01*
X141362295Y-95560713D02*
X141362295Y-95636904D01*
X141362295Y-95636904D02*
X141324200Y-95751190D01*
X141324200Y-95751190D02*
X141248009Y-95827380D01*
X141248009Y-95827380D02*
X141171819Y-95865475D01*
X141171819Y-95865475D02*
X141019438Y-95903571D01*
X141019438Y-95903571D02*
X140905152Y-95903571D01*
X140905152Y-95903571D02*
X140752771Y-95865475D01*
X140752771Y-95865475D02*
X140676580Y-95827380D01*
X140676580Y-95827380D02*
X140600390Y-95751190D01*
X140600390Y-95751190D02*
X140562295Y-95636904D01*
X140562295Y-95636904D02*
X140562295Y-95560713D01*
X140562295Y-95560713D02*
X140600390Y-95446428D01*
X140600390Y-95446428D02*
X140638485Y-95408332D01*
X140562295Y-95141666D02*
X140562295Y-94646428D01*
X140562295Y-94646428D02*
X140867057Y-94913094D01*
X140867057Y-94913094D02*
X140867057Y-94798809D01*
X140867057Y-94798809D02*
X140905152Y-94722618D01*
X140905152Y-94722618D02*
X140943247Y-94684523D01*
X140943247Y-94684523D02*
X141019438Y-94646428D01*
X141019438Y-94646428D02*
X141209914Y-94646428D01*
X141209914Y-94646428D02*
X141286104Y-94684523D01*
X141286104Y-94684523D02*
X141324200Y-94722618D01*
X141324200Y-94722618D02*
X141362295Y-94798809D01*
X141362295Y-94798809D02*
X141362295Y-95027380D01*
X141362295Y-95027380D02*
X141324200Y-95103571D01*
X141324200Y-95103571D02*
X141286104Y-95141666D01*
X165616667Y-89612295D02*
X165350000Y-89231342D01*
X165159524Y-89612295D02*
X165159524Y-88812295D01*
X165159524Y-88812295D02*
X165464286Y-88812295D01*
X165464286Y-88812295D02*
X165540476Y-88850390D01*
X165540476Y-88850390D02*
X165578571Y-88888485D01*
X165578571Y-88888485D02*
X165616667Y-88964676D01*
X165616667Y-88964676D02*
X165616667Y-89078961D01*
X165616667Y-89078961D02*
X165578571Y-89155152D01*
X165578571Y-89155152D02*
X165540476Y-89193247D01*
X165540476Y-89193247D02*
X165464286Y-89231342D01*
X165464286Y-89231342D02*
X165159524Y-89231342D01*
X166340476Y-88812295D02*
X165959524Y-88812295D01*
X165959524Y-88812295D02*
X165921428Y-89193247D01*
X165921428Y-89193247D02*
X165959524Y-89155152D01*
X165959524Y-89155152D02*
X166035714Y-89117057D01*
X166035714Y-89117057D02*
X166226190Y-89117057D01*
X166226190Y-89117057D02*
X166302381Y-89155152D01*
X166302381Y-89155152D02*
X166340476Y-89193247D01*
X166340476Y-89193247D02*
X166378571Y-89269438D01*
X166378571Y-89269438D02*
X166378571Y-89459914D01*
X166378571Y-89459914D02*
X166340476Y-89536104D01*
X166340476Y-89536104D02*
X166302381Y-89574200D01*
X166302381Y-89574200D02*
X166226190Y-89612295D01*
X166226190Y-89612295D02*
X166035714Y-89612295D01*
X166035714Y-89612295D02*
X165959524Y-89574200D01*
X165959524Y-89574200D02*
X165921428Y-89536104D01*
X157238095Y-86054819D02*
X157238095Y-86864342D01*
X157238095Y-86864342D02*
X157285714Y-86959580D01*
X157285714Y-86959580D02*
X157333333Y-87007200D01*
X157333333Y-87007200D02*
X157428571Y-87054819D01*
X157428571Y-87054819D02*
X157619047Y-87054819D01*
X157619047Y-87054819D02*
X157714285Y-87007200D01*
X157714285Y-87007200D02*
X157761904Y-86959580D01*
X157761904Y-86959580D02*
X157809523Y-86864342D01*
X157809523Y-86864342D02*
X157809523Y-86054819D01*
X158809523Y-87054819D02*
X158238095Y-87054819D01*
X158523809Y-87054819D02*
X158523809Y-86054819D01*
X158523809Y-86054819D02*
X158428571Y-86197676D01*
X158428571Y-86197676D02*
X158333333Y-86292914D01*
X158333333Y-86292914D02*
X158238095Y-86340533D01*
X145116667Y-99862295D02*
X144850000Y-99481342D01*
X144659524Y-99862295D02*
X144659524Y-99062295D01*
X144659524Y-99062295D02*
X144964286Y-99062295D01*
X144964286Y-99062295D02*
X145040476Y-99100390D01*
X145040476Y-99100390D02*
X145078571Y-99138485D01*
X145078571Y-99138485D02*
X145116667Y-99214676D01*
X145116667Y-99214676D02*
X145116667Y-99328961D01*
X145116667Y-99328961D02*
X145078571Y-99405152D01*
X145078571Y-99405152D02*
X145040476Y-99443247D01*
X145040476Y-99443247D02*
X144964286Y-99481342D01*
X144964286Y-99481342D02*
X144659524Y-99481342D01*
X145802381Y-99328961D02*
X145802381Y-99862295D01*
X145611905Y-99024200D02*
X145421428Y-99595628D01*
X145421428Y-99595628D02*
X145916667Y-99595628D01*
X142616667Y-89786104D02*
X142578571Y-89824200D01*
X142578571Y-89824200D02*
X142464286Y-89862295D01*
X142464286Y-89862295D02*
X142388095Y-89862295D01*
X142388095Y-89862295D02*
X142273809Y-89824200D01*
X142273809Y-89824200D02*
X142197619Y-89748009D01*
X142197619Y-89748009D02*
X142159524Y-89671819D01*
X142159524Y-89671819D02*
X142121428Y-89519438D01*
X142121428Y-89519438D02*
X142121428Y-89405152D01*
X142121428Y-89405152D02*
X142159524Y-89252771D01*
X142159524Y-89252771D02*
X142197619Y-89176580D01*
X142197619Y-89176580D02*
X142273809Y-89100390D01*
X142273809Y-89100390D02*
X142388095Y-89062295D01*
X142388095Y-89062295D02*
X142464286Y-89062295D01*
X142464286Y-89062295D02*
X142578571Y-89100390D01*
X142578571Y-89100390D02*
X142616667Y-89138485D01*
X143340476Y-89062295D02*
X142959524Y-89062295D01*
X142959524Y-89062295D02*
X142921428Y-89443247D01*
X142921428Y-89443247D02*
X142959524Y-89405152D01*
X142959524Y-89405152D02*
X143035714Y-89367057D01*
X143035714Y-89367057D02*
X143226190Y-89367057D01*
X143226190Y-89367057D02*
X143302381Y-89405152D01*
X143302381Y-89405152D02*
X143340476Y-89443247D01*
X143340476Y-89443247D02*
X143378571Y-89519438D01*
X143378571Y-89519438D02*
X143378571Y-89709914D01*
X143378571Y-89709914D02*
X143340476Y-89786104D01*
X143340476Y-89786104D02*
X143302381Y-89824200D01*
X143302381Y-89824200D02*
X143226190Y-89862295D01*
X143226190Y-89862295D02*
X143035714Y-89862295D01*
X143035714Y-89862295D02*
X142959524Y-89824200D01*
X142959524Y-89824200D02*
X142921428Y-89786104D01*
X155985714Y-96612295D02*
X155719047Y-96231342D01*
X155528571Y-96612295D02*
X155528571Y-95812295D01*
X155528571Y-95812295D02*
X155833333Y-95812295D01*
X155833333Y-95812295D02*
X155909523Y-95850390D01*
X155909523Y-95850390D02*
X155947618Y-95888485D01*
X155947618Y-95888485D02*
X155985714Y-95964676D01*
X155985714Y-95964676D02*
X155985714Y-96078961D01*
X155985714Y-96078961D02*
X155947618Y-96155152D01*
X155947618Y-96155152D02*
X155909523Y-96193247D01*
X155909523Y-96193247D02*
X155833333Y-96231342D01*
X155833333Y-96231342D02*
X155528571Y-96231342D01*
X156747618Y-96612295D02*
X156290475Y-96612295D01*
X156519047Y-96612295D02*
X156519047Y-95812295D01*
X156519047Y-95812295D02*
X156442856Y-95926580D01*
X156442856Y-95926580D02*
X156366666Y-96002771D01*
X156366666Y-96002771D02*
X156290475Y-96040866D01*
X157509523Y-96612295D02*
X157052380Y-96612295D01*
X157280952Y-96612295D02*
X157280952Y-95812295D01*
X157280952Y-95812295D02*
X157204761Y-95926580D01*
X157204761Y-95926580D02*
X157128571Y-96002771D01*
X157128571Y-96002771D02*
X157052380Y-96040866D01*
X165616667Y-92612295D02*
X165350000Y-92231342D01*
X165159524Y-92612295D02*
X165159524Y-91812295D01*
X165159524Y-91812295D02*
X165464286Y-91812295D01*
X165464286Y-91812295D02*
X165540476Y-91850390D01*
X165540476Y-91850390D02*
X165578571Y-91888485D01*
X165578571Y-91888485D02*
X165616667Y-91964676D01*
X165616667Y-91964676D02*
X165616667Y-92078961D01*
X165616667Y-92078961D02*
X165578571Y-92155152D01*
X165578571Y-92155152D02*
X165540476Y-92193247D01*
X165540476Y-92193247D02*
X165464286Y-92231342D01*
X165464286Y-92231342D02*
X165159524Y-92231342D01*
X166378571Y-92612295D02*
X165921428Y-92612295D01*
X166150000Y-92612295D02*
X166150000Y-91812295D01*
X166150000Y-91812295D02*
X166073809Y-91926580D01*
X166073809Y-91926580D02*
X165997619Y-92002771D01*
X165997619Y-92002771D02*
X165921428Y-92040866D01*
X145866667Y-87112295D02*
X145600000Y-86731342D01*
X145409524Y-87112295D02*
X145409524Y-86312295D01*
X145409524Y-86312295D02*
X145714286Y-86312295D01*
X145714286Y-86312295D02*
X145790476Y-86350390D01*
X145790476Y-86350390D02*
X145828571Y-86388485D01*
X145828571Y-86388485D02*
X145866667Y-86464676D01*
X145866667Y-86464676D02*
X145866667Y-86578961D01*
X145866667Y-86578961D02*
X145828571Y-86655152D01*
X145828571Y-86655152D02*
X145790476Y-86693247D01*
X145790476Y-86693247D02*
X145714286Y-86731342D01*
X145714286Y-86731342D02*
X145409524Y-86731342D01*
X146133333Y-86312295D02*
X146666667Y-86312295D01*
X146666667Y-86312295D02*
X146323809Y-87112295D01*
X141916666Y-78204819D02*
X141916666Y-78919104D01*
X141916666Y-78919104D02*
X141869047Y-79061961D01*
X141869047Y-79061961D02*
X141773809Y-79157200D01*
X141773809Y-79157200D02*
X141630952Y-79204819D01*
X141630952Y-79204819D02*
X141535714Y-79204819D01*
X142916666Y-79204819D02*
X142345238Y-79204819D01*
X142630952Y-79204819D02*
X142630952Y-78204819D01*
X142630952Y-78204819D02*
X142535714Y-78347676D01*
X142535714Y-78347676D02*
X142440476Y-78442914D01*
X142440476Y-78442914D02*
X142345238Y-78490533D01*
X153616667Y-85862295D02*
X153350000Y-85481342D01*
X153159524Y-85862295D02*
X153159524Y-85062295D01*
X153159524Y-85062295D02*
X153464286Y-85062295D01*
X153464286Y-85062295D02*
X153540476Y-85100390D01*
X153540476Y-85100390D02*
X153578571Y-85138485D01*
X153578571Y-85138485D02*
X153616667Y-85214676D01*
X153616667Y-85214676D02*
X153616667Y-85328961D01*
X153616667Y-85328961D02*
X153578571Y-85405152D01*
X153578571Y-85405152D02*
X153540476Y-85443247D01*
X153540476Y-85443247D02*
X153464286Y-85481342D01*
X153464286Y-85481342D02*
X153159524Y-85481342D01*
X154302381Y-85062295D02*
X154150000Y-85062295D01*
X154150000Y-85062295D02*
X154073809Y-85100390D01*
X154073809Y-85100390D02*
X154035714Y-85138485D01*
X154035714Y-85138485D02*
X153959524Y-85252771D01*
X153959524Y-85252771D02*
X153921428Y-85405152D01*
X153921428Y-85405152D02*
X153921428Y-85709914D01*
X153921428Y-85709914D02*
X153959524Y-85786104D01*
X153959524Y-85786104D02*
X153997619Y-85824200D01*
X153997619Y-85824200D02*
X154073809Y-85862295D01*
X154073809Y-85862295D02*
X154226190Y-85862295D01*
X154226190Y-85862295D02*
X154302381Y-85824200D01*
X154302381Y-85824200D02*
X154340476Y-85786104D01*
X154340476Y-85786104D02*
X154378571Y-85709914D01*
X154378571Y-85709914D02*
X154378571Y-85519438D01*
X154378571Y-85519438D02*
X154340476Y-85443247D01*
X154340476Y-85443247D02*
X154302381Y-85405152D01*
X154302381Y-85405152D02*
X154226190Y-85367057D01*
X154226190Y-85367057D02*
X154073809Y-85367057D01*
X154073809Y-85367057D02*
X153997619Y-85405152D01*
X153997619Y-85405152D02*
X153959524Y-85443247D01*
X153959524Y-85443247D02*
X153921428Y-85519438D01*
X150354819Y-88761904D02*
X151164342Y-88761904D01*
X151164342Y-88761904D02*
X151259580Y-88714285D01*
X151259580Y-88714285D02*
X151307200Y-88666666D01*
X151307200Y-88666666D02*
X151354819Y-88571428D01*
X151354819Y-88571428D02*
X151354819Y-88380952D01*
X151354819Y-88380952D02*
X151307200Y-88285714D01*
X151307200Y-88285714D02*
X151259580Y-88238095D01*
X151259580Y-88238095D02*
X151164342Y-88190476D01*
X151164342Y-88190476D02*
X150354819Y-88190476D01*
X150450057Y-87761904D02*
X150402438Y-87714285D01*
X150402438Y-87714285D02*
X150354819Y-87619047D01*
X150354819Y-87619047D02*
X150354819Y-87380952D01*
X150354819Y-87380952D02*
X150402438Y-87285714D01*
X150402438Y-87285714D02*
X150450057Y-87238095D01*
X150450057Y-87238095D02*
X150545295Y-87190476D01*
X150545295Y-87190476D02*
X150640533Y-87190476D01*
X150640533Y-87190476D02*
X150783390Y-87238095D01*
X150783390Y-87238095D02*
X151354819Y-87809523D01*
X151354819Y-87809523D02*
X151354819Y-87190476D01*
X155909524Y-101612295D02*
X155909524Y-100812295D01*
X155909524Y-100812295D02*
X156100000Y-100812295D01*
X156100000Y-100812295D02*
X156214286Y-100850390D01*
X156214286Y-100850390D02*
X156290476Y-100926580D01*
X156290476Y-100926580D02*
X156328571Y-101002771D01*
X156328571Y-101002771D02*
X156366667Y-101155152D01*
X156366667Y-101155152D02*
X156366667Y-101269438D01*
X156366667Y-101269438D02*
X156328571Y-101421819D01*
X156328571Y-101421819D02*
X156290476Y-101498009D01*
X156290476Y-101498009D02*
X156214286Y-101574200D01*
X156214286Y-101574200D02*
X156100000Y-101612295D01*
X156100000Y-101612295D02*
X155909524Y-101612295D01*
X157052381Y-101078961D02*
X157052381Y-101612295D01*
X156861905Y-100774200D02*
X156671428Y-101345628D01*
X156671428Y-101345628D02*
X157166667Y-101345628D01*
X159856104Y-86108332D02*
X159894200Y-86146428D01*
X159894200Y-86146428D02*
X159932295Y-86260713D01*
X159932295Y-86260713D02*
X159932295Y-86336904D01*
X159932295Y-86336904D02*
X159894200Y-86451190D01*
X159894200Y-86451190D02*
X159818009Y-86527380D01*
X159818009Y-86527380D02*
X159741819Y-86565475D01*
X159741819Y-86565475D02*
X159589438Y-86603571D01*
X159589438Y-86603571D02*
X159475152Y-86603571D01*
X159475152Y-86603571D02*
X159322771Y-86565475D01*
X159322771Y-86565475D02*
X159246580Y-86527380D01*
X159246580Y-86527380D02*
X159170390Y-86451190D01*
X159170390Y-86451190D02*
X159132295Y-86336904D01*
X159132295Y-86336904D02*
X159132295Y-86260713D01*
X159132295Y-86260713D02*
X159170390Y-86146428D01*
X159170390Y-86146428D02*
X159208485Y-86108332D01*
X159208485Y-85803571D02*
X159170390Y-85765475D01*
X159170390Y-85765475D02*
X159132295Y-85689285D01*
X159132295Y-85689285D02*
X159132295Y-85498809D01*
X159132295Y-85498809D02*
X159170390Y-85422618D01*
X159170390Y-85422618D02*
X159208485Y-85384523D01*
X159208485Y-85384523D02*
X159284676Y-85346428D01*
X159284676Y-85346428D02*
X159360866Y-85346428D01*
X159360866Y-85346428D02*
X159475152Y-85384523D01*
X159475152Y-85384523D02*
X159932295Y-85841666D01*
X159932295Y-85841666D02*
X159932295Y-85346428D01*
%TO.C,U3*%
X133425001Y-86025000D02*
X137575001Y-86025000D01*
X133425001Y-87135000D02*
X133425001Y-86025000D01*
X133425001Y-94975000D02*
X133425001Y-93865000D01*
X133425001Y-94975000D02*
X137575001Y-94975000D01*
X137575001Y-86025000D02*
X137575001Y-87135000D01*
X137575001Y-94975000D02*
X137575001Y-93865000D01*
D12*
X132862501Y-87135000D02*
X132622501Y-86805000D01*
X133102501Y-86805000D01*
X132862501Y-87135000D01*
G36*
X132862501Y-87135000D02*
G01*
X132622501Y-86805000D01*
X133102501Y-86805000D01*
X132862501Y-87135000D01*
G37*
%TO.C,TP2*%
X131700000Y-94500000D02*
G75*
G02*
X130300000Y-94500000I-700000J0D01*
G01*
X130300000Y-94500000D02*
G75*
G02*
X131700000Y-94500000I700000J0D01*
G01*
%TO.C,JP1*%
X140000000Y-81249999D02*
X142000000Y-81249999D01*
X140000000Y-84049999D02*
X140000000Y-81249999D01*
X142000000Y-81249999D02*
X142000000Y-84049999D01*
X142000000Y-84049999D02*
X140000000Y-84049999D01*
%TO.C,D3*%
X159500000Y-100460000D02*
X162184999Y-100460000D01*
X162184999Y-98540000D02*
X159500000Y-98540000D01*
X162184999Y-100460000D02*
X162184999Y-98540000D01*
%TO.C,TP1*%
X147800000Y-98550000D02*
X149200000Y-98550000D01*
X147800000Y-99950000D02*
X147800000Y-98550000D01*
X149200000Y-98550000D02*
X149200000Y-99950000D01*
X149200000Y-99950000D02*
X147800000Y-99950000D01*
%TO.C,R12*%
X136737258Y-96977500D02*
X136262742Y-96977500D01*
X136737258Y-98022500D02*
X136262742Y-98022500D01*
%TO.C,R9*%
X147027500Y-91919758D02*
X147027500Y-91445242D01*
X148072500Y-91919758D02*
X148072500Y-91445242D01*
%TO.C,D1*%
X135350000Y-85586000D02*
X135350000Y-79776000D01*
X135350000Y-85586000D02*
X139650000Y-85586000D01*
X139650000Y-85586000D02*
X139650000Y-79776000D01*
%TO.C,R3*%
X157837742Y-92977500D02*
X158312258Y-92977500D01*
X157837742Y-94022500D02*
X158312258Y-94022500D01*
%TO.C,R10*%
X160737258Y-96977500D02*
X160262742Y-96977500D01*
X160737258Y-98022500D02*
X160262742Y-98022500D01*
%TO.C,C1*%
X145490000Y-88915581D02*
X145490000Y-88634419D01*
X146510000Y-88915581D02*
X146510000Y-88634419D01*
%TO.C,D5*%
X135500000Y-100460000D02*
X138184999Y-100460000D01*
X138184999Y-98540000D02*
X135500000Y-98540000D01*
X138184999Y-100460000D02*
X138184999Y-98540000D01*
%TO.C,R8*%
X148932500Y-91919758D02*
X148932500Y-91445242D01*
X149977500Y-91919758D02*
X149977500Y-91445242D01*
%TO.C,FB1*%
X141662780Y-84740000D02*
X141337220Y-84740000D01*
X141662780Y-85760000D02*
X141337220Y-85760000D01*
%TO.C,R2*%
X163562258Y-90227500D02*
X163087742Y-90227500D01*
X163562258Y-91272500D02*
X163087742Y-91272500D01*
%TO.C,C6*%
X139032502Y-86545000D02*
X139032502Y-88455000D01*
X139032502Y-88455000D02*
X142952502Y-88455000D01*
X142952502Y-86545000D02*
X139032502Y-86545000D01*
%TO.C,C4*%
X140665581Y-90490001D02*
X140384419Y-90490001D01*
X140665581Y-91510001D02*
X140384419Y-91510001D01*
%TO.C,C3*%
X139240000Y-95415581D02*
X139240000Y-95134419D01*
X140260000Y-95415581D02*
X140260000Y-95134419D01*
%TO.C,R5*%
X163562258Y-88727500D02*
X163087742Y-88727500D01*
X163562258Y-89772500D02*
X163087742Y-89772500D01*
%TO.C,U1*%
X155940000Y-87440000D02*
X160060000Y-87440000D01*
X155940000Y-87535000D02*
X155940000Y-87440000D01*
X155940000Y-92560000D02*
X155940000Y-92465000D01*
X160060000Y-87440000D02*
X160060000Y-87535000D01*
X160060000Y-92465000D02*
X160060000Y-92560000D01*
X160060000Y-92560000D02*
X155940000Y-92560000D01*
X155400000Y-87530000D02*
X155160000Y-87200000D01*
X155640000Y-87200000D01*
X155400000Y-87530000D01*
G36*
X155400000Y-87530000D02*
G01*
X155160000Y-87200000D01*
X155640000Y-87200000D01*
X155400000Y-87530000D01*
G37*
%TO.C,R4*%
X142687742Y-98977500D02*
X143162258Y-98977500D01*
X142687742Y-100022500D02*
X143162258Y-100022500D01*
%TO.C,C5*%
X140665582Y-88990000D02*
X140384420Y-88990000D01*
X140665582Y-90010000D02*
X140384420Y-90010000D01*
%TO.C,R11*%
X156737258Y-96977500D02*
X156262742Y-96977500D01*
X156737258Y-98022500D02*
X156262742Y-98022500D01*
%TO.C,R1*%
X163562258Y-91727500D02*
X163087742Y-91727500D01*
X163562258Y-92772500D02*
X163087742Y-92772500D01*
%TO.C,R7*%
X145262742Y-84977500D02*
X145737258Y-84977500D01*
X145262742Y-86022500D02*
X145737258Y-86022500D01*
%TO.C,J1*%
X143830000Y-80100000D02*
X143830000Y-81800000D01*
X153170000Y-80100000D02*
X153170000Y-81800000D01*
%TO.C,R6*%
X151737258Y-84977500D02*
X151262742Y-84977500D01*
X151737258Y-86022500D02*
X151262742Y-86022500D01*
%TO.C,U2*%
X146940000Y-87090000D02*
X146990000Y-87090000D01*
X146940000Y-88910000D02*
X146940000Y-87090000D01*
X146990000Y-88910000D02*
X146940000Y-88910000D01*
X150010000Y-87090000D02*
X150060000Y-87090000D01*
X150060000Y-87090000D02*
X150060000Y-88910000D01*
X150060000Y-88910000D02*
X150010000Y-88910000D01*
X150340000Y-86790000D02*
X150010000Y-86550000D01*
X150340000Y-86310000D01*
X150340000Y-86790000D01*
G36*
X150340000Y-86790000D02*
G01*
X150010000Y-86550000D01*
X150340000Y-86310000D01*
X150340000Y-86790000D01*
G37*
%TO.C,D4*%
X155500000Y-100460000D02*
X158184999Y-100460000D01*
X158184999Y-98540000D02*
X155500000Y-98540000D01*
X158184999Y-100460000D02*
X158184999Y-98540000D01*
%TO.C,C2*%
X160490000Y-86115581D02*
X160490000Y-85834419D01*
X161510000Y-86115581D02*
X161510000Y-85834419D01*
%TD*%
%LPC*%
D13*
%TO.C,JP1*%
G36*
X141750000Y-82799999D02*
G01*
X140250000Y-82799999D01*
X140250000Y-82499999D01*
X141750000Y-82499999D01*
X141750000Y-82799999D01*
G37*
%TD*%
D14*
%TO.C,U3*%
X132900001Y-87642500D03*
X132900001Y-88277500D03*
X132900000Y-88912500D03*
X132900001Y-89547500D03*
X132900001Y-90182500D03*
X132900001Y-90817500D03*
X132900001Y-91452500D03*
X132900000Y-92087500D03*
X132900001Y-92722500D03*
X132900001Y-93357500D03*
X138100001Y-93357500D03*
X138100001Y-92722500D03*
X138100002Y-92087500D03*
X138100001Y-91452500D03*
X138100001Y-90817500D03*
X138100001Y-90182500D03*
X138100001Y-89547500D03*
X138100002Y-88912500D03*
X138100001Y-88277500D03*
X138100001Y-87642500D03*
%TD*%
D15*
%TO.C,TP2*%
X131000000Y-94500000D03*
%TD*%
D16*
%TO.C,JP1*%
X141000000Y-82000000D03*
X141000000Y-83299998D03*
%TD*%
D17*
%TO.C,D3*%
X161437501Y-99500000D03*
X159562499Y-99500000D03*
%TD*%
D18*
%TO.C,H3*%
X165500000Y-99500000D03*
%TD*%
D19*
%TO.C,TP1*%
X148500000Y-99250000D03*
%TD*%
D20*
%TO.C,R12*%
X137325000Y-97500000D03*
X135675000Y-97500000D03*
%TD*%
D18*
%TO.C,H4*%
X131500000Y-99500000D03*
%TD*%
%TO.C,H1*%
X131500000Y-80500000D03*
%TD*%
D21*
%TO.C,R9*%
X147550000Y-92507500D03*
X147550000Y-90857500D03*
%TD*%
D22*
%TO.C,FID2*%
X165500000Y-84500000D03*
%TD*%
D23*
%TO.C,D1*%
X137500000Y-84076001D03*
X137500000Y-79775999D03*
%TD*%
D24*
%TO.C,R3*%
X157250000Y-93500000D03*
X158900000Y-93500000D03*
%TD*%
D20*
%TO.C,R10*%
X161325000Y-97500000D03*
X159675000Y-97500000D03*
%TD*%
D25*
%TO.C,C1*%
X146000000Y-89550000D03*
X146000000Y-88000000D03*
%TD*%
D17*
%TO.C,D5*%
X137437501Y-99500000D03*
X135562499Y-99500000D03*
%TD*%
D21*
%TO.C,R8*%
X149455000Y-92507500D03*
X149455000Y-90857500D03*
%TD*%
D26*
%TO.C,FB1*%
X142287501Y-85250000D03*
X140712499Y-85250000D03*
%TD*%
D20*
%TO.C,R2*%
X164150000Y-90750000D03*
X162500000Y-90750000D03*
%TD*%
D22*
%TO.C,FID3*%
X165500000Y-95500000D03*
%TD*%
D27*
%TO.C,C6*%
X140000002Y-87500000D03*
X142705002Y-87500000D03*
%TD*%
D28*
%TO.C,C4*%
X141300000Y-91000001D03*
X139750000Y-91000001D03*
%TD*%
D25*
%TO.C,C3*%
X139750000Y-96050000D03*
X139750000Y-94500000D03*
%TD*%
D20*
%TO.C,R5*%
X164150000Y-89250000D03*
X162500000Y-89250000D03*
%TD*%
D29*
%TO.C,U1*%
X155525000Y-88095000D03*
X155525000Y-89365000D03*
X155525000Y-90635000D03*
X155525000Y-91905000D03*
X160475000Y-91905000D03*
X160475000Y-90635000D03*
X160475000Y-89365000D03*
X160475000Y-88095000D03*
%TD*%
D24*
%TO.C,R4*%
X142100000Y-99500000D03*
X143750000Y-99500000D03*
%TD*%
D28*
%TO.C,C5*%
X141300001Y-89500000D03*
X139750001Y-89500000D03*
%TD*%
D20*
%TO.C,R11*%
X157325000Y-97500000D03*
X155675000Y-97500000D03*
%TD*%
%TO.C,R1*%
X164150000Y-92250000D03*
X162500000Y-92250000D03*
%TD*%
D22*
%TO.C,FID1*%
X131500000Y-84500000D03*
%TD*%
D24*
%TO.C,R7*%
X144675000Y-85500000D03*
X146325000Y-85500000D03*
%TD*%
D30*
%TO.C,J1*%
X151390000Y-82605000D03*
X145610000Y-82605000D03*
D31*
X151700000Y-83680000D03*
X150900000Y-83680000D03*
D32*
X149750000Y-83679999D03*
X148750000Y-83680000D03*
X148250000Y-83680000D03*
X147250000Y-83679999D03*
D31*
X146100000Y-83680000D03*
X145300000Y-83680000D03*
X145300000Y-83680000D03*
X146100000Y-83680000D03*
D32*
X146750000Y-83680000D03*
X147750000Y-83680000D03*
X149250000Y-83680000D03*
X150250000Y-83680000D03*
D31*
X150900000Y-83680000D03*
X151700000Y-83680000D03*
D33*
X152820000Y-83105000D03*
D34*
X152820000Y-78925000D03*
D33*
X144180000Y-83105000D03*
D34*
X144180000Y-78925000D03*
%TD*%
D20*
%TO.C,R6*%
X152325000Y-85500000D03*
X150675000Y-85500000D03*
%TD*%
D18*
%TO.C,H2*%
X165500000Y-80500000D03*
%TD*%
D35*
%TO.C,U2*%
X149449999Y-86862500D03*
X148500000Y-86862500D03*
X147550001Y-86862500D03*
X147550001Y-89137500D03*
X148500000Y-89137500D03*
X149449999Y-89137500D03*
%TD*%
D17*
%TO.C,D4*%
X157437501Y-99500000D03*
X155562499Y-99500000D03*
%TD*%
D25*
%TO.C,C2*%
X161000000Y-86750000D03*
X161000000Y-85200000D03*
%TD*%
D36*
%TO.C,D2*%
X146275000Y-97000000D03*
D37*
X143735000Y-97000000D03*
%TD*%
D36*
%TO.C,Q1*%
X153275000Y-97000000D03*
D37*
X150735000Y-97000000D03*
%TD*%
D38*
X134250001Y-92249999D03*
X160500000Y-84000000D03*
X161250000Y-93500000D03*
X135500000Y-87499999D03*
X155000000Y-84500000D03*
X139000000Y-98750000D03*
X135250000Y-91250001D03*
X161500000Y-84000000D03*
X131249999Y-90000000D03*
X153800000Y-91400000D03*
X139000000Y-99750000D03*
X145000000Y-90105000D03*
X161500000Y-83000000D03*
X159000000Y-91500000D03*
X158000000Y-89750000D03*
X135500000Y-78250000D03*
X145000000Y-91105000D03*
X162250000Y-93500000D03*
X161250000Y-94500000D03*
X134250000Y-84500000D03*
X136500000Y-87500000D03*
X156000000Y-85500000D03*
X144000000Y-90105000D03*
X140000000Y-98750000D03*
X158000000Y-91500000D03*
X130250000Y-90000000D03*
X158000000Y-88750000D03*
X149000000Y-93500000D03*
X153800000Y-92400000D03*
X135500000Y-79250000D03*
X160500000Y-83000000D03*
X132500000Y-95250000D03*
X148500000Y-96500000D03*
X133250001Y-84500000D03*
X139500000Y-78250000D03*
X136500000Y-86500000D03*
X139500000Y-79250000D03*
X135500000Y-86499999D03*
X162250000Y-94500000D03*
X135250001Y-92250000D03*
X155000000Y-85500000D03*
X131250000Y-90999999D03*
X138500000Y-96000000D03*
X143750000Y-93500000D03*
X148500000Y-97500000D03*
X134250001Y-91250001D03*
X148000000Y-93500000D03*
X148500000Y-85604000D03*
X151000000Y-90500000D03*
X144000000Y-91105000D03*
X156000000Y-84500000D03*
X135250000Y-89000000D03*
X140000000Y-99750000D03*
X130250000Y-90999998D03*
X141750000Y-92000000D03*
X152800000Y-91400000D03*
X152500000Y-89965000D03*
X152500000Y-88765000D03*
X151000000Y-93750000D03*
X151100000Y-95150000D03*
X136000000Y-88500000D03*
X137900000Y-101500000D03*
X136750000Y-89500000D03*
X138500000Y-100750000D03*
X153000000Y-95200000D03*
X160250000Y-95000000D03*
X151875000Y-87625000D03*
X134750000Y-85500000D03*
X151000000Y-89500000D03*
X138500000Y-86500000D03*
%LPD*%
M02*
