%TF.GenerationSoftware,KiCad,Pcbnew,9.0.7+1*%
%TF.CreationDate,2026-05-26T01:48:58+00:00*%
%TF.ProjectId,FIC-100A,4649432d-3130-4304-912e-6b696361645f,rev?*%
%TF.SameCoordinates,Original*%
%TF.FileFunction,Paste,Top*%
%TF.FilePolarity,Positive*%
%FSLAX46Y46*%
G04 Gerber Fmt 4.6, Leading zero omitted, Abs format (unit mm)*
G04 Created by KiCad (PCBNEW 9.0.7+1) date 2026-05-26 01:48:58*
%MOMM*%
%LPD*%
G01*
G04 APERTURE LIST*
G04 Aperture macros list*
%AMRoundRect*
0 Rectangle with rounded corners*
0 $1 Rounding radius*
0 $2 $3 $4 $5 $6 $7 $8 $9 X,Y pos of 4 corners*
0 Add a 4 corners polygon primitive as box body*
4,1,4,$2,$3,$4,$5,$6,$7,$8,$9,$2,$3,0*
0 Add four circle primitives for the rounded corners*
1,1,$1+$1,$2,$3*
1,1,$1+$1,$4,$5*
1,1,$1+$1,$6,$7*
1,1,$1+$1,$8,$9*
0 Add four rect primitives between the rounded corners*
20,1,$1+$1,$2,$3,$4,$5,0*
20,1,$1+$1,$4,$5,$6,$7,0*
20,1,$1+$1,$6,$7,$8,$9,0*
20,1,$1+$1,$8,$9,$2,$3,0*%
G04 Aperture macros list end*
%ADD10R,1.200000X0.400000*%
%ADD11RoundRect,0.243750X0.243750X0.456250X-0.243750X0.456250X-0.243750X-0.456250X0.243750X-0.456250X0*%
%ADD12RoundRect,0.200000X0.200000X0.275000X-0.200000X0.275000X-0.200000X-0.275000X0.200000X-0.275000X0*%
%ADD13RoundRect,0.200000X0.275000X-0.200000X0.275000X0.200000X-0.275000X0.200000X-0.275000X-0.200000X0*%
%ADD14RoundRect,0.200000X-0.200000X-0.275000X0.200000X-0.275000X0.200000X0.275000X-0.200000X0.275000X0*%
%ADD15RoundRect,0.225000X0.250000X-0.225000X0.250000X0.225000X-0.250000X0.225000X-0.250000X-0.225000X0*%
%ADD16RoundRect,0.218750X0.218750X0.256250X-0.218750X0.256250X-0.218750X-0.256250X0.218750X-0.256250X0*%
%ADD17RoundRect,0.250000X-0.457500X-0.445000X0.457500X-0.445000X0.457500X0.445000X-0.457500X0.445000X0*%
%ADD18RoundRect,0.225000X0.225000X0.250000X-0.225000X0.250000X-0.225000X-0.250000X0.225000X-0.250000X0*%
%ADD19RoundRect,0.150000X-0.825000X-0.150000X0.825000X-0.150000X0.825000X0.150000X-0.825000X0.150000X0*%
%ADD20RoundRect,0.150000X0.150000X0.425000X-0.150000X0.425000X-0.150000X-0.425000X0.150000X-0.425000X0*%
%ADD21RoundRect,0.075000X0.075000X0.500000X-0.075000X0.500000X-0.075000X-0.500000X0.075000X-0.500000X0*%
%ADD22O,1.000000X2.100000*%
%ADD23O,1.000000X1.800000*%
%ADD24RoundRect,0.150000X-0.150000X0.512500X-0.150000X-0.512500X0.150000X-0.512500X0.150000X0.512500X0*%
G04 APERTURE END LIST*
D10*
%TO.C,U3*%
X132900001Y-87642500D03*
X132900001Y-88277500D03*
X132900000Y-88912500D03*
X132900001Y-89547500D03*
X132900001Y-90182500D03*
X132900001Y-90817500D03*
X132900001Y-91452500D03*
X132900000Y-92087500D03*
X132900001Y-92722500D03*
X132900001Y-93357500D03*
X138100001Y-93357500D03*
X138100001Y-92722500D03*
X138100002Y-92087500D03*
X138100001Y-91452500D03*
X138100001Y-90817500D03*
X138100001Y-90182500D03*
X138100001Y-89547500D03*
X138100002Y-88912500D03*
X138100001Y-88277500D03*
X138100001Y-87642500D03*
%TD*%
D11*
%TO.C,D3*%
X161437501Y-99500000D03*
X159562499Y-99500000D03*
%TD*%
D12*
%TO.C,R12*%
X137325000Y-97500000D03*
X135675000Y-97500000D03*
%TD*%
D13*
%TO.C,R9*%
X147550000Y-92507500D03*
X147550000Y-90857500D03*
%TD*%
D14*
%TO.C,R3*%
X157250000Y-93500000D03*
X158900000Y-93500000D03*
%TD*%
D12*
%TO.C,R10*%
X161325000Y-97500000D03*
X159675000Y-97500000D03*
%TD*%
D15*
%TO.C,C1*%
X146000000Y-89550000D03*
X146000000Y-88000000D03*
%TD*%
D11*
%TO.C,D5*%
X137437501Y-99500000D03*
X135562499Y-99500000D03*
%TD*%
D13*
%TO.C,R8*%
X149455000Y-92507500D03*
X149455000Y-90857500D03*
%TD*%
D16*
%TO.C,FB1*%
X142287501Y-85250000D03*
X140712499Y-85250000D03*
%TD*%
D12*
%TO.C,R2*%
X164150000Y-90750000D03*
X162500000Y-90750000D03*
%TD*%
D17*
%TO.C,C6*%
X140000002Y-87500000D03*
X142705002Y-87500000D03*
%TD*%
D18*
%TO.C,C4*%
X141300000Y-91000001D03*
X139750000Y-91000001D03*
%TD*%
D15*
%TO.C,C3*%
X139750000Y-96050000D03*
X139750000Y-94500000D03*
%TD*%
D12*
%TO.C,R5*%
X164150000Y-89250000D03*
X162500000Y-89250000D03*
%TD*%
D19*
%TO.C,U1*%
X155525000Y-88095000D03*
X155525000Y-89365000D03*
X155525000Y-90635000D03*
X155525000Y-91905000D03*
X160475000Y-91905000D03*
X160475000Y-90635000D03*
X160475000Y-89365000D03*
X160475000Y-88095000D03*
%TD*%
D14*
%TO.C,R4*%
X142100000Y-99500000D03*
X143750000Y-99500000D03*
%TD*%
D18*
%TO.C,C5*%
X141300001Y-89500000D03*
X139750001Y-89500000D03*
%TD*%
D12*
%TO.C,R11*%
X157325000Y-97500000D03*
X155675000Y-97500000D03*
%TD*%
%TO.C,R1*%
X164150000Y-92250000D03*
X162500000Y-92250000D03*
%TD*%
D14*
%TO.C,R7*%
X144675000Y-85500000D03*
X146325000Y-85500000D03*
%TD*%
D20*
%TO.C,J1*%
X151700000Y-83680000D03*
X150900000Y-83680000D03*
D21*
X149750000Y-83679999D03*
X148750000Y-83680000D03*
X148250000Y-83680000D03*
X147250000Y-83679999D03*
D20*
X146100000Y-83680000D03*
X145300000Y-83680000D03*
X145300000Y-83680000D03*
X146100000Y-83680000D03*
D21*
X146750000Y-83680000D03*
X147750000Y-83680000D03*
X149250000Y-83680000D03*
X150250000Y-83680000D03*
D20*
X150900000Y-83680000D03*
X151700000Y-83680000D03*
D22*
X152820000Y-83105000D03*
D23*
X152820000Y-78925000D03*
D22*
X144180000Y-83105000D03*
D23*
X144180000Y-78925000D03*
%TD*%
D12*
%TO.C,R6*%
X152325000Y-85500000D03*
X150675000Y-85500000D03*
%TD*%
D24*
%TO.C,U2*%
X149449999Y-86862500D03*
X148500000Y-86862500D03*
X147550001Y-86862500D03*
X147550001Y-89137500D03*
X148500000Y-89137500D03*
X149449999Y-89137500D03*
%TD*%
D11*
%TO.C,D4*%
X157437501Y-99500000D03*
X155562499Y-99500000D03*
%TD*%
D15*
%TO.C,C2*%
X161000000Y-86750000D03*
X161000000Y-85200000D03*
%TD*%
M02*
