%TF.GenerationSoftware,KiCad,Pcbnew,9.0.7+1*%
%TF.CreationDate,2026-05-26T01:48:58+00:00*%
%TF.ProjectId,FIC-100A,4649432d-3130-4304-912e-6b696361645f,rev?*%
%TF.SameCoordinates,Original*%
%TF.FileFunction,Soldermask,Top*%
%TF.FilePolarity,Negative*%
%FSLAX46Y46*%
G04 Gerber Fmt 4.6, Leading zero omitted, Abs format (unit mm)*
G04 Created by KiCad (PCBNEW 9.0.7+1) date 2026-05-26 01:48:58*
%MOMM*%
%LPD*%
G01*
G04 APERTURE LIST*
G04 Aperture macros list*
%AMRoundRect*
0 Rectangle with rounded corners*
0 $1 Rounding radius*
0 $2 $3 $4 $5 $6 $7 $8 $9 X,Y pos of 4 corners*
0 Add a 4 corners polygon primitive as box body*
4,1,4,$2,$3,$4,$5,$6,$7,$8,$9,$2,$3,0*
0 Add four circle primitives for the rounded corners*
1,1,$1+$1,$2,$3*
1,1,$1+$1,$4,$5*
1,1,$1+$1,$6,$7*
1,1,$1+$1,$8,$9*
0 Add four rect primitives between the rounded corners*
20,1,$1+$1,$2,$3,$4,$5,0*
20,1,$1+$1,$4,$5,$6,$7,0*
20,1,$1+$1,$6,$7,$8,$9,0*
20,1,$1+$1,$8,$9,$2,$3,0*%
G04 Aperture macros list end*
%ADD10C,0.000000*%
%ADD11RoundRect,0.050000X-0.600000X-0.200000X0.600000X-0.200000X0.600000X0.200000X-0.600000X0.200000X0*%
%ADD12C,1.100000*%
%ADD13RoundRect,0.050000X-0.750000X0.500000X-0.750000X-0.500000X0.750000X-0.500000X0.750000X0.500000X0*%
%ADD14RoundRect,0.268750X0.268750X0.481250X-0.268750X0.481250X-0.268750X-0.481250X0.268750X-0.481250X0*%
%ADD15C,4.600000*%
%ADD16RoundRect,0.050000X-0.500000X-0.500000X0.500000X-0.500000X0.500000X0.500000X-0.500000X0.500000X0*%
%ADD17RoundRect,0.225000X0.225000X0.300000X-0.225000X0.300000X-0.225000X-0.300000X0.225000X-0.300000X0*%
%ADD18RoundRect,0.225000X0.300000X-0.225000X0.300000X0.225000X-0.300000X0.225000X-0.300000X-0.225000X0*%
%ADD19C,2.000000*%
%ADD20RoundRect,0.260870X0.939130X-1.039130X0.939130X1.039130X-0.939130X1.039130X-0.939130X-1.039130X0*%
%ADD21RoundRect,0.225000X-0.225000X-0.300000X0.225000X-0.300000X0.225000X0.300000X-0.225000X0.300000X0*%
%ADD22RoundRect,0.250000X0.275000X-0.250000X0.275000X0.250000X-0.275000X0.250000X-0.275000X-0.250000X0*%
%ADD23RoundRect,0.243750X0.243750X0.281250X-0.243750X0.281250X-0.243750X-0.281250X0.243750X-0.281250X0*%
%ADD24RoundRect,0.267985X-0.489515X-0.477015X0.489515X-0.477015X0.489515X0.477015X-0.489515X0.477015X0*%
%ADD25RoundRect,0.250000X0.250000X0.275000X-0.250000X0.275000X-0.250000X-0.275000X0.250000X-0.275000X0*%
%ADD26RoundRect,0.175000X-0.850000X-0.175000X0.850000X-0.175000X0.850000X0.175000X-0.850000X0.175000X0*%
%ADD27C,0.750000*%
%ADD28RoundRect,0.175000X0.175000X0.450000X-0.175000X0.450000X-0.175000X-0.450000X0.175000X-0.450000X0*%
%ADD29RoundRect,0.100000X0.100000X0.525000X-0.100000X0.525000X-0.100000X-0.525000X0.100000X-0.525000X0*%
%ADD30O,1.100000X2.200000*%
%ADD31O,1.100000X1.900000*%
%ADD32RoundRect,0.175000X-0.175000X0.537500X-0.175000X-0.537500X0.175000X-0.537500X0.175000X0.537500X0*%
%ADD33RoundRect,0.050000X0.900000X0.900000X-0.900000X0.900000X-0.900000X-0.900000X0.900000X-0.900000X0*%
%ADD34C,1.900000*%
%ADD35C,0.700000*%
G04 APERTURE END LIST*
D10*
%TO.C,JP1*%
G36*
X141750000Y-82799999D02*
G01*
X140250000Y-82799999D01*
X140250000Y-82499999D01*
X141750000Y-82499999D01*
X141750000Y-82799999D01*
G37*
%TD*%
D11*
%TO.C,U3*%
X132900001Y-87642500D03*
X132900001Y-88277500D03*
X132900000Y-88912500D03*
X132900001Y-89547500D03*
X132900001Y-90182500D03*
X132900001Y-90817500D03*
X132900001Y-91452500D03*
X132900000Y-92087500D03*
X132900001Y-92722500D03*
X132900001Y-93357500D03*
X138100001Y-93357500D03*
X138100001Y-92722500D03*
X138100002Y-92087500D03*
X138100001Y-91452500D03*
X138100001Y-90817500D03*
X138100001Y-90182500D03*
X138100001Y-89547500D03*
X138100002Y-88912500D03*
X138100001Y-88277500D03*
X138100001Y-87642500D03*
%TD*%
D12*
%TO.C,TP2*%
X131000000Y-94500000D03*
%TD*%
D13*
%TO.C,JP1*%
X141000000Y-82000000D03*
X141000000Y-83299998D03*
%TD*%
D14*
%TO.C,D3*%
X161437501Y-99500000D03*
X159562499Y-99500000D03*
%TD*%
D15*
%TO.C,H3*%
X165500000Y-99500000D03*
%TD*%
D16*
%TO.C,TP1*%
X148500000Y-99250000D03*
%TD*%
D17*
%TO.C,R12*%
X137325000Y-97500000D03*
X135675000Y-97500000D03*
%TD*%
D15*
%TO.C,H4*%
X131500000Y-99500000D03*
%TD*%
%TO.C,H1*%
X131500000Y-80500000D03*
%TD*%
D18*
%TO.C,R9*%
X147550000Y-92507500D03*
X147550000Y-90857500D03*
%TD*%
D19*
%TO.C,FID2*%
X165500000Y-84500000D03*
%TD*%
D20*
%TO.C,D1*%
X137500000Y-84076001D03*
X137500000Y-79775999D03*
%TD*%
D21*
%TO.C,R3*%
X157250000Y-93500000D03*
X158900000Y-93500000D03*
%TD*%
D17*
%TO.C,R10*%
X161325000Y-97500000D03*
X159675000Y-97500000D03*
%TD*%
D22*
%TO.C,C1*%
X146000000Y-89550000D03*
X146000000Y-88000000D03*
%TD*%
D14*
%TO.C,D5*%
X137437501Y-99500000D03*
X135562499Y-99500000D03*
%TD*%
D18*
%TO.C,R8*%
X149455000Y-92507500D03*
X149455000Y-90857500D03*
%TD*%
D23*
%TO.C,FB1*%
X142287501Y-85250000D03*
X140712499Y-85250000D03*
%TD*%
D17*
%TO.C,R2*%
X164150000Y-90750000D03*
X162500000Y-90750000D03*
%TD*%
D19*
%TO.C,FID3*%
X165500000Y-95500000D03*
%TD*%
D24*
%TO.C,C6*%
X140000002Y-87500000D03*
X142705002Y-87500000D03*
%TD*%
D25*
%TO.C,C4*%
X141300000Y-91000001D03*
X139750000Y-91000001D03*
%TD*%
D22*
%TO.C,C3*%
X139750000Y-96050000D03*
X139750000Y-94500000D03*
%TD*%
D17*
%TO.C,R5*%
X164150000Y-89250000D03*
X162500000Y-89250000D03*
%TD*%
D26*
%TO.C,U1*%
X155525000Y-88095000D03*
X155525000Y-89365000D03*
X155525000Y-90635000D03*
X155525000Y-91905000D03*
X160475000Y-91905000D03*
X160475000Y-90635000D03*
X160475000Y-89365000D03*
X160475000Y-88095000D03*
%TD*%
D21*
%TO.C,R4*%
X142100000Y-99500000D03*
X143750000Y-99500000D03*
%TD*%
D25*
%TO.C,C5*%
X141300001Y-89500000D03*
X139750001Y-89500000D03*
%TD*%
D17*
%TO.C,R11*%
X157325000Y-97500000D03*
X155675000Y-97500000D03*
%TD*%
%TO.C,R1*%
X164150000Y-92250000D03*
X162500000Y-92250000D03*
%TD*%
D19*
%TO.C,FID1*%
X131500000Y-84500000D03*
%TD*%
D21*
%TO.C,R7*%
X144675000Y-85500000D03*
X146325000Y-85500000D03*
%TD*%
D27*
%TO.C,J1*%
X151390000Y-82605000D03*
X145610000Y-82605000D03*
D28*
X151700000Y-83680000D03*
X150900000Y-83680000D03*
D29*
X149750000Y-83679999D03*
X148750000Y-83680000D03*
X148250000Y-83680000D03*
X147250000Y-83679999D03*
D28*
X146100000Y-83680000D03*
X145300000Y-83680000D03*
X145300000Y-83680000D03*
X146100000Y-83680000D03*
D29*
X146750000Y-83680000D03*
X147750000Y-83680000D03*
X149250000Y-83680000D03*
X150250000Y-83680000D03*
D28*
X150900000Y-83680000D03*
X151700000Y-83680000D03*
D30*
X152820000Y-83105000D03*
D31*
X152820000Y-78925000D03*
D30*
X144180000Y-83105000D03*
D31*
X144180000Y-78925000D03*
%TD*%
D17*
%TO.C,R6*%
X152325000Y-85500000D03*
X150675000Y-85500000D03*
%TD*%
D15*
%TO.C,H2*%
X165500000Y-80500000D03*
%TD*%
D32*
%TO.C,U2*%
X149449999Y-86862500D03*
X148500000Y-86862500D03*
X147550001Y-86862500D03*
X147550001Y-89137500D03*
X148500000Y-89137500D03*
X149449999Y-89137500D03*
%TD*%
D14*
%TO.C,D4*%
X157437501Y-99500000D03*
X155562499Y-99500000D03*
%TD*%
D22*
%TO.C,C2*%
X161000000Y-86750000D03*
X161000000Y-85200000D03*
%TD*%
D33*
%TO.C,D2*%
X146275000Y-97000000D03*
D34*
X143735000Y-97000000D03*
%TD*%
D33*
%TO.C,Q1*%
X153275000Y-97000000D03*
D34*
X150735000Y-97000000D03*
%TD*%
D35*
X134250001Y-92249999D03*
X160500000Y-84000000D03*
X161250000Y-93500000D03*
X135500000Y-87499999D03*
X155000000Y-84500000D03*
X139000000Y-98750000D03*
X135250000Y-91250001D03*
X161500000Y-84000000D03*
X131249999Y-90000000D03*
X153800000Y-91400000D03*
X139000000Y-99750000D03*
X145000000Y-90105000D03*
X161500000Y-83000000D03*
X159000000Y-91500000D03*
X158000000Y-89750000D03*
X135500000Y-78250000D03*
X145000000Y-91105000D03*
X162250000Y-93500000D03*
X161250000Y-94500000D03*
X134250000Y-84500000D03*
X136500000Y-87500000D03*
X156000000Y-85500000D03*
X144000000Y-90105000D03*
X140000000Y-98750000D03*
X158000000Y-91500000D03*
X130250000Y-90000000D03*
X158000000Y-88750000D03*
X149000000Y-93500000D03*
X153800000Y-92400000D03*
X135500000Y-79250000D03*
X160500000Y-83000000D03*
X132500000Y-95250000D03*
X148500000Y-96500000D03*
X133250001Y-84500000D03*
X139500000Y-78250000D03*
X136500000Y-86500000D03*
X139500000Y-79250000D03*
X135500000Y-86499999D03*
X162250000Y-94500000D03*
X135250001Y-92250000D03*
X155000000Y-85500000D03*
X131250000Y-90999999D03*
X138500000Y-96000000D03*
X143750000Y-93500000D03*
X148500000Y-97500000D03*
X134250001Y-91250001D03*
X148000000Y-93500000D03*
X148500000Y-85604000D03*
X151000000Y-90500000D03*
X144000000Y-91105000D03*
X156000000Y-84500000D03*
X135250000Y-89000000D03*
X140000000Y-99750000D03*
X130250000Y-90999998D03*
X141750000Y-92000000D03*
X152800000Y-91400000D03*
X152500000Y-89965000D03*
X152500000Y-88765000D03*
X151000000Y-93750000D03*
X151100000Y-95150000D03*
X136000000Y-88500000D03*
X137900000Y-101500000D03*
X136750000Y-89500000D03*
X138500000Y-100750000D03*
X153000000Y-95200000D03*
X160250000Y-95000000D03*
X151875000Y-87625000D03*
X134750000Y-85500000D03*
X151000000Y-89500000D03*
X138500000Y-86500000D03*
M02*
